<svg xmlns="http://www.w3.org/2000/svg" xmlns:xlink="http://www.w3.org/1999/xlink" viewBox="0 0 1920 1080"><defs><style>.cls-1{fill:none;}.cls-2{isolation:isolate;}.cls-3{fill:url(#radial-gradient);}.cls-4{fill:#026a9e;}.cls-5,.cls-50{opacity:0.3;}.cls-6{fill:#0f4b6a;}.cls-7{fill:#fff;}.cls-8{fill:#bcbdbe;}.cls-9{fill:gray;}.cls-10{fill:#f5a52e;}.cls-11{fill:#ffe590;}.cls-12{fill:#d9391e;}.cls-13{fill:#ff836f;}.cls-14{fill:#295e87;}.cls-15{fill:#659ec9;}.cls-16{fill:#3a3a3a;}.cls-17{clip-path:url(#clip-path);}.cls-18{fill:#8b5200;}.cls-19{fill:#f57319;}.cls-20{fill:#ffb914;}.cls-21{fill:#ffaf00;}.cls-22{fill:#733b00;}.cls-23{fill:#713800;}.cls-24{fill:#e97a00;}.cls-25{fill:#8c5300;}.cls-26{fill:#ff9b00;}.cls-27{fill:#7e4000;}.cls-28{fill:#303033;}.cls-29{fill:#fff6bf;}.cls-30{fill:#32526e;}.cls-31{fill:#ff9d26;}.cls-32{fill:#a7a9ac;}.cls-33{fill:#bcbec0;}.cls-34{fill:#939598;}.cls-35{fill:#d62821;}.cls-36{fill:#92201a;}.cls-37{fill:#089486;}.cls-38{fill:#11b7a3;}.cls-39{fill:#1bc9b0;}.cls-40{fill:#b4caed;}.cls-41{fill:#ffc654;}.cls-42{fill:#dae5f8;}.cls-43{fill:#ffec7a;}.cls-44{fill:#e2a81a;}.cls-45{fill:#f6c01c;}.cls-46{fill:#ffcf4d;}.cls-47{fill:#4180e2;}.cls-48{fill:#39baf9;}.cls-49{fill:#ebfdff;}.cls-50{fill:#84c7ef;mix-blend-mode:screen;}</style><radialGradient id="radial-gradient" cx="960" cy="540" r="1590.54" gradientUnits="userSpaceOnUse"><stop offset="0.23" stop-color="#abe2f5"/><stop offset="0.34" stop-color="#a6dff3"/><stop offset="0.46" stop-color="#99d5ec"/><stop offset="0.58" stop-color="#83c6e0"/><stop offset="0.71" stop-color="#64b0d0"/><stop offset="0.84" stop-color="#3c93bc"/><stop offset="0.98" stop-color="#0c71a3"/><stop offset="1" stop-color="#026a9e"/></radialGradient><clipPath id="clip-path"><path class="cls-1" d="M1600.63,857.79l0,7.54c0-2.35,1.55-4.71,4.65-6.5,6.19-3.57,16.17-3.59,22.31,0,3,1.78,4.58,4.1,4.58,6.43l0-7.54c0-2.33-1.53-4.65-4.59-6.42-6.13-3.58-16.12-3.56-22.3,0C1602.18,853.08,1600.62,855.44,1600.63,857.79Z"/></clipPath></defs><g class="cls-2"><g id="Mortgage"><rect class="cls-3" width="1920" height="1080"/><path class="cls-4" d="M0,673,616.23,305.64l519.64,273.6,353.61-216.91L1891,594.67,1659.68,732.74l-68.5,89.7,88,50.83a15,15,0,0,1,0,25.9L1366,1080H0Z"/><polygon class="cls-5" points="661.67 668.6 344.31 485.38 724.56 265.83 1041.9 449.07 661.67 668.6"/><path class="cls-6" d="M720,185.78h0c-2.75-1.67-7.12,0-10.7,4.42l-93.1,115.44L623,320.75l3.33-4.12L922,490h13.52l9.72-2.3,94-117.54Z"/><polygon class="cls-7" points="943.28 457.06 1003.34 382.37 710.35 213.22 650 287.75 943.28 457.06"/><polygon class="cls-8" points="924.94 431.93 970.58 375.22 727.38 234.82 681.53 291.44 924.94 431.93"/><path d="M935.56,490l93-115.44c4.22-5.21,9.62-6.63,12.05-3.14s.92,10.54-3.31,15.76L942.24,505.08Z"/><path class="cls-7" d="M616.23,305.64,350.6,459c-4.85,2.81-8.81,9.65-8.81,15.25,0,2.69.93,4.62,2.45,5.59l0,0,.11.05s.07.05.1.05L665.35,664.82l8.14-14.13L929.56,505.08l6-15.12Z"/><path class="cls-8" d="M942.24,505.08a15.92,15.92,0,0,1-4.39,3.87l-268,154.7c-4.85,2.84-8.84.57-8.84-5s4-12.44,8.84-15.24L935.56,490Z"/><path class="cls-8" d="M703.67,385.22a.7.7,0,0,0-.33-.2l-86.13-49.75a8.82,8.82,0,0,0-8.06,0l-15.63,9a1.66,1.66,0,0,1-.31.21c-1.89-1.3-1.78-3.21.31-4.43l15.63-9a8.94,8.94,0,0,1,8.06,0l86.13,49.74C705.44,382,705.54,383.9,703.67,385.22Z"/><path class="cls-9" d="M703.67,385.22a1.26,1.26,0,0,1-.33.14l-15.61,9.07a8.94,8.94,0,0,1-8,0l-86.21-49.79c-.06-.05-.2-.1-.31-.17a1.66,1.66,0,0,0,.31-.21l15.63-9a8.82,8.82,0,0,1,8.06,0L703.34,385A.7.7,0,0,1,703.67,385.22Z"/><path class="cls-9" d="M612.05,362.87l-19.54-6.22-14.59-8.42a8.92,8.92,0,0,0-8,0l-12.26,7.08-17.07,4.78v6.4h0a2.82,2.82,0,0,0,1.71,2.31l32.43,18.73a8.63,8.63,0,0,0,8,0L610.4,371.6a2.88,2.88,0,0,0,1.65-2.33h0Z"/><path class="cls-8" d="M582.68,381.14a8.94,8.94,0,0,1-8,0L542.28,362.4c-2.23-1.28-2.23-3.34,0-4.62l27.62-16a8.92,8.92,0,0,1,8,0l32.48,18.75c2.17,1.24,2.17,3.34,0,4.6Z"/><path class="cls-7" d="M570,358.24c1.4-.9,3.09-2,4.6-2.85v0c-1.8.62-3.8,1.21-5.69,1.76l-6.6,1.87-1.57-.94,3.32-3.64c1-1.07,2.18-2.23,3.29-3.21h0c-1.55.8-3.42,1.8-5.07,2.66l-4.81,2.48-1.9-1.13,12.07-6.1,2.75,1.57-3.09,3.48a35.89,35.89,0,0,1-2.91,2.88l.08,0c1.52-.56,3.31-1.11,5.1-1.65l6.08-1.7,2.68,1.57-10.69,6.93-2-1.2Z"/><path class="cls-7" d="M580.89,357a23.88,23.88,0,0,1,3.39,1.64c1.66.95,2.46,1.75,2.61,2.57.08.64-.32,1.31-1.29,1.87a6.7,6.7,0,0,1-5,.44l-.06,0c.55.66.25,1.39-.61,2.21a22.66,22.66,0,0,0-2.21,2.3l-2.15-1.18a11.51,11.51,0,0,1,1.93-2c1.15-1.07,1.08-1.64,0-2.31l-1.08-.64-4.62,2.71-2.06-1.2ZM578,361l1.21.72a4.26,4.26,0,0,0,4.13.24c1.26-.7,1-1.54-.36-2.33a11.88,11.88,0,0,0-1.41-.68Z"/><path class="cls-7" d="M587.76,373.44A12.13,12.13,0,0,1,584.3,372c-3.6-2.08-3.54-4.64,0-6.64a12.41,12.41,0,0,1,12.05.06,6.24,6.24,0,0,1,2.21,1.86l-2.07.71a5.55,5.55,0,0,0-1.77-1.54,8.19,8.19,0,0,0-8.15.14c-2.52,1.44-2.63,3.16-.15,4.63a11,11,0,0,0,2.66,1.07Z"/><path class="cls-9" d="M572,386l-19.52-6.19-14.59-8.47a8.9,8.9,0,0,0-8,0l-12.33,7.09-17,4.77v6.43h0a2.94,2.94,0,0,0,1.67,2.34l32.45,18.69a8.73,8.73,0,0,0,8,0l27.65-15.94a2.86,2.86,0,0,0,1.68-2.33h0Z"/><path class="cls-8" d="M542.63,404.29a9,9,0,0,1-8,0l-32.45-18.75c-2.24-1.26-2.24-3.36,0-4.62l27.68-16a8.77,8.77,0,0,1,8,0l32.43,18.73c2.27,1.27,2.27,3.35,0,4.61Z"/><path class="cls-7" d="M533.82,382.26a11.73,11.73,0,0,1-11.41.3c-3.18-1.83-2.76-4.44.56-6.37a11.91,11.91,0,0,1,11.37-.29C537.59,377.81,537.06,380.36,533.82,382.26Zm-8.61-4.82c-2.32,1.36-3,3.07-1,4.22s5,.73,7.38-.65c2.13-1.2,3.07-3,1-4.18S527.55,376.09,525.21,377.44Z"/><path class="cls-7" d="M541.15,380.07l6.59,3.78-1.72,1-4.51-2.59-3.11,1.8,4.16,2.38-1.68,1L536.7,385l-4.82,2.79-2-1.19Z"/><path class="cls-7" d="M549.72,385l6.57,3.77-1.7,1-4.5-2.58L547,389l4.19,2.41-1.71.95-4.15-2.4-4.83,2.78-2.09-1.19Z"/><path class="cls-9" d="M531.88,409.14l-19.52-6.21-14.57-8.42a8.74,8.74,0,0,0-8.05,0l-12.24,7.07-17.05,4.8v6.37h0a2.81,2.81,0,0,0,1.66,2.32l32.49,18.75a8.92,8.92,0,0,0,8,0l27.62-15.95a2.81,2.81,0,0,0,1.67-2.33h0Z"/><path class="cls-8" d="M502.59,427.41a8.85,8.85,0,0,1-8,0l-32.49-18.75c-2.21-1.26-2.21-3.33,0-4.61l27.63-15.95a8.74,8.74,0,0,1,8.05,0l32.42,18.73c2.25,1.26,2.25,3.33,0,4.61Z"/><path class="cls-7" d="M487.75,404.88l-4.18,1.31-2.14-1.25,14.94-4.44,2.69,1.52-7.68,8.7-2.21-1.32,2.15-2.45Zm4.83,1,1.89-2.14c.46-.53,1-1.09,1.53-1.58h0c-.83.29-1.8.64-2.67.91l-3.66,1.13Z"/><path class="cls-7" d="M501.06,415.9a12.57,12.57,0,0,1-3.44-1.4c-3.6-2.1-3.55-4.65-.08-6.64a12.48,12.48,0,0,1,12.07,0,6.62,6.62,0,0,1,2.25,1.88l-2.08.72a5.65,5.65,0,0,0-1.79-1.55,8.17,8.17,0,0,0-8.14.13c-2.53,1.44-2.66,3.17-.14,4.63a10.54,10.54,0,0,0,2.64,1.07Z"/><path class="cls-10" d="M491.82,432.27l-19.47-6.18-14.65-8.46a8.83,8.83,0,0,0-8,0l-12.28,7.1-17,4.79v6.39h0a2.81,2.81,0,0,0,1.62,2.28l32.49,18.75a8.83,8.83,0,0,0,8,0L490.16,441a2.83,2.83,0,0,0,1.66-2.3h0Z"/><path class="cls-11" d="M462.53,450.54a8.71,8.71,0,0,1-8,0L422,431.78c-2.19-1.26-2.19-3.32,0-4.61l27.66-15.94a8.9,8.9,0,0,1,8,0L490.16,430c2.21,1.29,2.21,3.36,0,4.63Z"/><path class="cls-7" d="M451.5,433.55a12,12,0,0,1-3.46-1.41c-3.61-2.08-3.49-4.64-.06-6.61a12.33,12.33,0,0,1,12,0,5.62,5.62,0,0,1,2.23,1.87l-2.09.69a5.27,5.27,0,0,0-1.74-1.53,8.28,8.28,0,0,0-8.16.13c-2.52,1.43-2.64,3.18-.18,4.62a10.74,10.74,0,0,0,2.69,1.08Z"/><path class="cls-7" d="M464.32,435.52,460,433.05,456.72,435l4.77,2.77-1.7,1-6.85-4,11.34-6.54,6.64,3.8-1.75,1-4.53-2.63-2.89,1.71,4.28,2.47Z"/><path class="cls-12" d="M451.75,455.4l-19.52-6.21-14.61-8.43a8.81,8.81,0,0,0-8,0l-12.21,7.08-17.07,4.79v6.42h0a2.8,2.8,0,0,0,1.65,2.3l32.47,18.72a8.77,8.77,0,0,0,8,0l27.64-16a2.71,2.71,0,0,0,1.67-2.29h0Z"/><path class="cls-13" d="M422.44,473.66a8.77,8.77,0,0,1-8,0L382,455c-2.17-1.28-2.17-3.36,0-4.65l27.63-15.95a9,9,0,0,1,8,0l32.46,18.74c2.21,1.28,2.21,3.33,0,4.61Z"/><path class="cls-7" d="M403,451.9a10.63,10.63,0,0,1-2.84-1.15c-2.93-1.71-2.84-3.78,0-5.42a10.11,10.11,0,0,1,9.86,0,4.5,4.5,0,0,1,1.83,1.54l-1.71.55a4.77,4.77,0,0,0-1.47-1.26,6.7,6.7,0,0,0-6.64.1c-2.05,1.2-2.15,2.6-.11,3.82a9.68,9.68,0,0,0,2.16.85Z"/><path class="cls-7" d="M406,454.57l6.79-7.6,1.16.66-6.73,7.62Z"/><path class="cls-7" d="M421.81,457.61a9.39,9.39,0,0,1-9.28.26c-2.66-1.52-2.28-3.65.43-5.2a9.7,9.7,0,0,1,9.28-.24C425,454,424.45,456.06,421.81,457.61Zm-7-3.92c-1.89,1.08-2.43,2.5-.82,3.44s4.09.59,6-.54c1.75-1,2.52-2.45.84-3.43S416.7,452.56,414.77,453.69Z"/><path class="cls-7" d="M418.6,461.19l9.29-5.33,1.92,1.12-1.58,3.68a19.91,19.91,0,0,1-1.53,2.71h0c1.14-.8,2.28-1.49,3.7-2.31l3.25-1.87,1.54.9-9.27,5.35-1.75-1,1.67-3.75a16.18,16.18,0,0,1,1.53-2.79l-.07,0c-1.11.71-2.34,1.45-3.83,2.33l-3.34,1.89Z"/><path class="cls-14" d="M753.1,405.52h0v-6.61l-12.7-2.11L719,384.43a9,9,0,0,0-8,0l-10.05,5.84-7.27-1.2v6.72h0a2.82,2.82,0,0,0,1.74,2.31l32.44,18.75a8.77,8.77,0,0,0,8,0l15.59-9a2.7,2.7,0,0,0,1.67-2.29h0Z"/><path class="cls-15" d="M735.84,410.33a9,9,0,0,1-8,0l-32.44-18.75c-2.24-1.29-2.24-3.35,0-4.65L711,378a8.86,8.86,0,0,1,8,0l32.41,18.72c2.22,1.28,2.22,3.36,0,4.62Z"/><path class="cls-7" d="M714.75,389.57c1.15-.74,2.56-1.63,3.85-2.38h0c-1.47.49-3.12,1-4.77,1.43l-5.51,1.59-1.31-.79,2.77-3.08c.86-.88,1.81-1.84,2.73-2.69h0c-1.29.7-2.84,1.54-4.22,2.24l-4,2.08L702.6,387l10.1-5.12,2.32,1.32-2.62,2.89c-.77.89-1.61,1.68-2.39,2.42l0,.05c1.29-.43,2.77-.94,4.24-1.38l5.14-1.44,2.26,1.3-9,5.81-1.66-.95Z"/><path class="cls-7" d="M725.67,389.39l-9.55,5.48-1.68-1,9.5-5.46Z"/><path class="cls-7" d="M729.37,391.53,719.86,397l-1.73-1,9.5-5.48Z"/><path class="cls-7" d="M731.2,392.75a17.55,17.55,0,0,1,2.83,1.4c1.36.77,2.07,1.43,2.17,2.13.11.52-.29,1.1-1.11,1.57a5.63,5.63,0,0,1-4.1.36l0,0c.45.54.19,1.18-.49,1.82a16.74,16.74,0,0,0-1.89,2l-1.81-1a11.15,11.15,0,0,1,1.63-1.65c1-.9.93-1.39,0-2l-.88-.49-3.89,2.24-1.71-1Zm-2.47,3.41,1,.58a3.41,3.41,0,0,0,3.46.19c1-.6.81-1.3-.34-1.94a5.83,5.83,0,0,0-1.14-.56Z"/><path class="cls-7" d="M736.9,406.53a10,10,0,0,1-2.9-1.19c-3-1.75-3-3.85,0-5.56a10.43,10.43,0,0,1,10.12.06,4.63,4.63,0,0,1,1.85,1.54l-1.74.62a4.5,4.5,0,0,0-1.48-1.31,6.87,6.87,0,0,0-6.81.1c-2.15,1.23-2.25,2.69-.15,3.9a10,10,0,0,0,2.23.91Z"/><path class="cls-14" d="M801.16,433.28h0v-6.62l-12.73-2.1L767,412.23a8.87,8.87,0,0,0-8,0L749,418l-7.24-1.19v6.7h0a2.89,2.89,0,0,0,1.65,2.33l32.49,18.73a8.94,8.94,0,0,0,8,0l15.62-9a2.85,2.85,0,0,0,1.62-2.32Z"/><path class="cls-15" d="M783.92,438.08a8.94,8.94,0,0,1-8,0L743.4,419.35c-2.14-1.28-2.14-3.37,0-4.63l15.67-9a8.63,8.63,0,0,1,8,0l32.5,18.72c2.2,1.26,2.2,3.37,0,4.64Z"/><path class="cls-7" d="M765.05,418.6c1.18-.71,2.56-1.62,3.87-2.34l-.06,0c-1.43.48-3.1,1-4.75,1.44l-5.5,1.56-1.33-.75,2.8-3.06c.83-.92,1.8-1.88,2.71-2.73h0l-4.21,2.24-4,2.1-1.63-.95L763,411l2.31,1.3-2.58,3c-.8.84-1.62,1.66-2.46,2.41l.08,0c1.3-.45,2.78-.94,4.23-1.38l5.18-1.42,2.23,1.31-9,5.78-1.68-.95Z"/><path class="cls-7" d="M776,418.42l-9.53,5.5-1.75-1,9.55-5.48Z"/><path class="cls-7" d="M779.67,420.56l-9.51,5.49-1.7-1,9.49-5.51Z"/><path class="cls-7" d="M773.73,428.31l14.84-2.4,1,.59-14.8,2.39Zm9.15-2.54a5.75,5.75,0,0,1-5.35.32c-1.22-.74-1.33-1.93.42-3a5.61,5.61,0,0,1,5.31-.27C784.73,423.68,784.52,424.81,782.88,425.77Zm-3.49-1.9c-1.1.61-1.53,1.28-.84,1.66s1.8.15,2.91-.45,1.53-1.25.78-1.69A3.13,3.13,0,0,0,779.39,423.87Zm6,7.77a5.52,5.52,0,0,1-5.3.28c-1.28-.72-1.36-1.92.41-3a5.6,5.6,0,0,1,5.31-.25C787.27,429.54,787.07,430.67,785.39,431.64Zm-3.5-1.92c-1,.57-1.47,1.26-.77,1.67a3,3,0,0,0,2.85-.48c1-.59,1.58-1.22.82-1.65A3.12,3.12,0,0,0,781.89,429.72Z"/><path class="cls-14" d="M854.94,464.28h0v-6.6l-12.71-2.08-21.41-12.39a9,9,0,0,0-8,0l-10.09,5.84-7.22-1.21v6.74h0a2.78,2.78,0,0,0,1.67,2.3l32.5,18.74a8.77,8.77,0,0,0,8,0l15.6-9a2.73,2.73,0,0,0,1.67-2.33Z"/><path class="cls-15" d="M837.67,469.08a8.71,8.71,0,0,1-8,0l-32.5-18.71c-2.16-1.28-2.16-3.36,0-4.62l15.64-9.07a9.11,9.11,0,0,1,8,0l32.45,18.75c2.18,1.3,2.18,3.36,0,4.64Z"/><path class="cls-7" d="M822.49,451.78c1.18-.75,2.56-1.64,3.88-2.39h-.06c-1.46.48-3.15,1-4.76,1.44L816,452.4l-1.34-.78,2.82-3.08c.83-.9,1.79-1.84,2.72-2.67h0c-1.25.68-2.84,1.52-4.19,2.23l-4.08,2.08-1.6-.93,10.15-5.12,2.26,1.3-2.56,2.92c-.76.86-1.61,1.68-2.43,2.44l.07,0c1.26-.44,2.76-.94,4.23-1.39l5.15-1.42,2.27,1.32-9,5.79-1.67-1Z"/><path class="cls-7" d="M833.41,451.59l-9.49,5.49-1.73-1,9.5-5.47Z"/><path class="cls-7" d="M837.13,453.72l-9.53,5.49-1.71-1,9.5-5.48Z"/><path class="cls-7" d="M836.94,459.61l-1.16.67-3.59-2.07,1.19-.68Z"/><path class="cls-14" d="M903,492.06h0v-6.58l-12.7-2.13L868.93,471a9.07,9.07,0,0,0-8,0l-10.07,5.82-7.21-1.21v6.75h0a2.84,2.84,0,0,0,1.65,2.32l32.45,18.72a8.83,8.83,0,0,0,8,0l15.65-9a2.71,2.71,0,0,0,1.63-2.28h0Z"/><path class="cls-15" d="M885.7,496.85a8.77,8.77,0,0,1-8,0l-32.45-18.73c-2.21-1.27-2.21-3.34,0-4.63l15.63-9a8.64,8.64,0,0,1,8,0l32.42,18.74c2.24,1.23,2.24,3.31,0,4.61Z"/><path class="cls-7" d="M868.58,478.38c1.18-.73,2.58-1.63,3.87-2.37h0c-1.48.47-3.14,1-4.76,1.43L862.13,479l-1.31-.77,2.76-3a35.13,35.13,0,0,1,2.74-2.72l0,0c-1.27.72-2.86,1.56-4.2,2.26l-4,2.1-1.63-.95,10.16-5.14,2.27,1.33-2.6,2.95c-.76.82-1.6,1.64-2.4,2.42h0c1.28-.48,2.76-.95,4.24-1.39l5.12-1.44,2.29,1.31-9,5.81-1.71-1Z"/><path class="cls-7" d="M879.51,478.18,870,483.7l-1.72-1,9.52-5.51Z"/><path class="cls-7" d="M883.22,480.32l-9.5,5.53-1.73-1,9.51-5.49Z"/><path class="cls-7" d="M887,484.82l-3.19,1.86,3.05,1.75-1.07.64-3.12-1.76-3.18,1.85-1.21-.67,3.22-1.87-3-1.74,1.12-.63,3,1.76,3.2-1.86Z"/><path class="cls-9" d="M665.74,393.88l-19.49-6.2-14.56-8.44a9.11,9.11,0,0,0-8.08,0l-12.25,7.08-17,4.81v6.4h0a2.87,2.87,0,0,0,1.65,2.32l32.46,18.71a8.81,8.81,0,0,0,8,0l27.67-15.94a2.75,2.75,0,0,0,1.62-2.32h0Z"/><path class="cls-8" d="M636.45,412.15a8.81,8.81,0,0,1-8,0L596,393.43c-2.17-1.26-2.17-3.34,0-4.64l27.62-16a9.11,9.11,0,0,1,8.08,0l32.43,18.74c2.17,1.27,2.17,3.34,0,4.63Z"/><path class="cls-7" d="M631.24,393c1.41-.87,3.1-2,4.66-2.83l-.07-.05c-1.73.61-3.74,1.22-5.68,1.76l-6.58,1.86-1.59-.92,3.4-3.67a38.42,38.42,0,0,1,3.2-3.18l0,0-5,2.7-4.81,2.47-2-1.13,12.13-6.1,2.72,1.56L628.53,389c-.92,1-1.9,2-2.9,2.85l0,.05c1.53-.55,3.34-1.15,5.08-1.64l6.13-1.71,2.68,1.54L628.88,397l-2-1.15Z"/><path class="cls-7" d="M639.85,397.33l-1.44.8-4.26-2.46,1.42-.82Z"/><path class="cls-9" d="M713.8,421.64l-19.47-6.22L679.73,407a8.79,8.79,0,0,0-8,0l-12.28,7.07-17,4.8v6.42h0a2.8,2.8,0,0,0,1.68,2.29l32.45,18.73a8.77,8.77,0,0,0,8,0l27.68-16a2.75,2.75,0,0,0,1.58-2.3h0Z"/><path class="cls-8" d="M684.54,439.9a8.71,8.71,0,0,1-8,0l-32.45-18.71c-2.21-1.27-2.21-3.36,0-4.62l27.63-16a9,9,0,0,1,8,0l32.49,18.75c2.16,1.28,2.16,3.36,0,4.64Z"/><path class="cls-7" d="M677,419.41c1.42-.88,3.09-2,4.64-2.84l-.08,0c-1.74.6-3.74,1.2-5.66,1.75l-6.6,1.87-1.58-.91,3.36-3.67c1-1.09,2.14-2.22,3.24-3.21l0,0c-1.53.84-3.41,1.83-5.07,2.69l-4.77,2.49-2-1.13,12.1-6.11,2.71,1.56-3.06,3.5c-.91,1-1.91,2-2.87,2.86l0,0c1.54-.51,3.3-1.11,5.1-1.61l6.11-1.74,2.71,1.56-10.72,6.9-2-1.11Z"/><path class="cls-7" d="M690.17,422l-3.79,2.21,3.63,2.1-1.29.77-3.64-2.1-3.86,2.21-1.39-.8,3.81-2.21L680,422.08l1.31-.76,3.66,2.11,3.79-2.19Z"/><path class="cls-16" d="M673.74,444.77l-19.46-6.2-14.61-8.42a8.77,8.77,0,0,0-8,0l-12.28,7.1-17,4.76v6.4h0a2.77,2.77,0,0,0,1.66,2.32l32.43,18.77a9.24,9.24,0,0,0,8,0l27.66-16a2.79,2.79,0,0,0,1.61-2.33h0Z"/><path class="cls-9" d="M644.47,463a8.67,8.67,0,0,1-8,0L604,444.34c-2.23-1.28-2.23-3.39,0-4.66l27.67-15.94a8.77,8.77,0,0,1,8,0l32.46,18.72c2.17,1.26,2.17,3.36,0,4.66Z"/><path class="cls-7" d="M637.33,442.4c-.6-1-.2-1.79.76-2.36,1.76-1,4.56-.84,6.65.37,2.38,1.38,2,2.8.68,3.58a6.05,6.05,0,0,1-4.16.46l-.06,0c.74.94.67,2-.68,2.75-1.95,1.17-4.9,1-7.25-.39-2.56-1.47-2.38-3.09-.87-4a6.78,6.78,0,0,1,4.87-.45Zm.9,3.77c1.14-.67.91-1.47,0-2.39a4.56,4.56,0,0,0-3.54.18c-1,.53-1.1,1.42.07,2.1A3.64,3.64,0,0,0,638.23,446.17Zm1.95-5.05c-.94.53-.72,1.28.05,2a3.91,3.91,0,0,0,3-.14c.76-.41,1.09-1.15,0-1.81A3.08,3.08,0,0,0,640.18,441.12Z"/><path class="cls-16" d="M633.7,467.93l-19.52-6.23-14.59-8.44a8.92,8.92,0,0,0-8,0l-12.27,7.07-17.07,4.84v6.4h0a3,3,0,0,0,1.64,2.3l32.47,18.72a8.71,8.71,0,0,0,8,0l27.65-15.95a2.81,2.81,0,0,0,1.64-2.31h0Z"/><path class="cls-9" d="M604.41,486.18a8.65,8.65,0,0,1-8,0l-32.47-18.7c-2.15-1.28-2.15-3.37,0-4.67l27.7-15.94a8.85,8.85,0,0,1,8,0l32.47,18.7c2.19,1.31,2.19,3.39,0,4.67Z"/><path class="cls-7" d="M605.85,466.42,601.62,464l-2.51,1.09.86.4a4.21,4.21,0,0,1,1.92,2c.34.78,0,1.65-1.34,2.43-2.07,1.22-5.51,1.18-8.18-.36a5.46,5.46,0,0,1-2.27-2.07l2-.62a4.9,4.9,0,0,0,1.83,1.69,4.57,4.57,0,0,0,4.39.23c1.23-.74,1.14-1.75-1-3-.6-.38-1.1-.58-1.59-.84l6.22-2.76,5.66,3.29Z"/><path class="cls-16" d="M593.64,491l-19.5-6.21-14.61-8.39a8.71,8.71,0,0,0-8,0l-12.26,7-17,4.83v6.41h0a2.79,2.79,0,0,0,1.64,2.29l32.42,18.74a9,9,0,0,0,8.06,0l27.63-16a2.85,2.85,0,0,0,1.65-2.32h0Z"/><path class="cls-9" d="M564.36,509.31a8.82,8.82,0,0,1-8.06,0L523.88,490.6c-2.23-1.26-2.23-3.37,0-4.63l27.64-16a9,9,0,0,1,8,0L592,488.73c2.2,1.27,2.2,3.37,0,4.63Z"/><path class="cls-7" d="M549.59,490.84l1.26-.72,2.5.06c4.95.1,7.46.05,8.94-.77,1-.56,1.33-1.35-.11-2.18a7.38,7.38,0,0,0-3.25-.8l.88-1.22a9.82,9.82,0,0,1,4.5,1.3c2.4,1.39,2.06,2.94.26,4s-4.87,1.17-8.54,1.1l-1.78-.06h0l4.52,2.57-1.72,1Z"/><path class="cls-16" d="M553.59,514.19,534.05,508l-14.61-8.44a8.73,8.73,0,0,0-8,0l-12.24,7.09-17.06,4.78v6.41h0a2.9,2.9,0,0,0,1.65,2.33l32.41,18.72a8.88,8.88,0,0,0,8.09,0l27.63-16a2.75,2.75,0,0,0,1.66-2.31h0Z"/><path class="cls-9" d="M524.3,532.48a9.07,9.07,0,0,1-8.09,0L483.8,513.73c-2.23-1.29-2.23-3.38,0-4.64l27.65-16a9,9,0,0,1,8,0l32.49,18.75c2.2,1.29,2.2,3.35,0,4.65Z"/><path class="cls-7" d="M518.28,512.65c-3.53,2-7.14,2.51-9.77,1s-1.52-3.51,1.75-5.46c3.46-2,7.16-2.46,9.73-1S521.47,510.78,518.28,512.65Zm-5.86-3.29c-2.69,1.53-3.35,2.75-2.22,3.39s3.32.23,5.92-1.27,3.46-2.68,2.24-3.42S515.13,507.77,512.42,509.36Z"/><path class="cls-7" d="M527.31,517.82c-3.54,2-7.11,2.55-9.74,1s-1.59-3.53,1.74-5.46,7.12-2.45,9.7-1S530.54,516,527.31,517.82Zm-5.88-3.27c-2.7,1.54-3.36,2.77-2.22,3.44s3.34.21,6-1.33,3.42-2.66,2.21-3.39S524.15,513,521.43,514.55Z"/><path class="cls-16" d="M625.68,417l-19.51-6.23-14.54-8.42a8.94,8.94,0,0,0-8.06,0l-12.25,7.07-17.05,4.8v6.41h0a2.81,2.81,0,0,0,1.64,2.32l32.46,18.74a9,9,0,0,0,8,0l27.66-16a2.74,2.74,0,0,0,1.62-2.31h0Z"/><path class="cls-9" d="M596.4,435.3a8.94,8.94,0,0,1-8,0l-32.46-18.73c-2.2-1.29-2.2-3.37,0-4.62l27.66-16a9,9,0,0,1,8.06,0l32.43,18.74c2.18,1.26,2.18,3.35,0,4.61Z"/><path class="cls-7" d="M600.08,414.85l-1.33.78-14.27,2.85-2.15-1.25,13.83-2.66h0l-5.2-3,1.73-1Z"/><path class="cls-16" d="M585.63,440.16,566.1,434l-14.58-8.43a8.71,8.71,0,0,0-8,0l-12.26,7.06-17,4.8v6.41h0a2.85,2.85,0,0,0,1.66,2.32l32.47,18.72a8.79,8.79,0,0,0,8,0l27.7-16a2.79,2.79,0,0,0,1.64-2.31h0Z"/><path class="cls-9" d="M556.29,458.43a8.73,8.73,0,0,1-8,0l-32.47-18.75c-2.22-1.25-2.22-3.34,0-4.6l27.65-16a9,9,0,0,1,8,0L584,437.85c2.19,1.29,2.19,3.35,0,4.61Z"/><path class="cls-7" d="M546.1,442.58l2.79-1.63-5-2.82,1.32-.8L556.56,436l2.45,1.4-6.6,3.81,1.4.81-1.56.91-1.43-.82-2.76,1.62Zm4.34-2.5,3-1.72c.63-.38,1.28-.7,2-1.08l-.1,0c-1,.2-1.85.39-2.82.52l-5,.57,0,0Z"/><path class="cls-16" d="M545.58,463.31l-19.53-6.25-14.6-8.41a8.71,8.71,0,0,0-8,0l-12.31,7.07-17,4.81v6.41h0a2.75,2.75,0,0,0,1.68,2.29L508.24,488a8.69,8.69,0,0,0,8,0l27.72-16a2.86,2.86,0,0,0,1.65-2.33h0Z"/><path class="cls-9" d="M516.21,481.58a8.69,8.69,0,0,1-8,0L475.8,462.81c-2.23-1.24-2.23-3.35,0-4.6l27.67-16a8.71,8.71,0,0,1,8,0L543.93,461c2.2,1.28,2.2,3.37,0,4.59Z"/><path class="cls-7" d="M513.79,459.71l0,0-3-.54L512,458l4,.79,1.76,1-11,6.33-2-1.18Z"/><path class="cls-16" d="M505.51,486.44,486,480.21l-14.65-8.44a8.9,8.9,0,0,0-8,0l-12.26,7.09-17,4.78V490h0a2.9,2.9,0,0,0,1.64,2.35l32.46,18.74a8.83,8.83,0,0,0,8,0l27.64-16a2.77,2.77,0,0,0,1.68-2.33h0Z"/><path class="cls-9" d="M476.19,504.7a8.83,8.83,0,0,1-8,0L435.72,486c-2.24-1.29-2.24-3.37,0-4.64l27.64-16a8.9,8.9,0,0,1,8,0l32.49,18.73c2.18,1.28,2.18,3.39,0,4.63Z"/><path class="cls-7" d="M474.66,487.44c-3.54,2.07-7.09,2.52-9.71,1s-1.59-3.56,1.75-5.49,7.13-2.44,9.68-1S477.88,485.59,474.66,487.44Zm-5.87-3.24c-2.69,1.53-3.32,2.72-2.21,3.4s3.36.2,6-1.3,3.42-2.66,2.21-3.4S471.54,482.6,468.79,484.2Z"/><path class="cls-9" d="M761.93,449.39l-19.51-6.2-14.59-8.41a8.83,8.83,0,0,0-8,0l-12.28,7.08-17,4.77V453h0a2.9,2.9,0,0,0,1.66,2.33l32.48,18.74a8.94,8.94,0,0,0,8,0l27.68-16a2.83,2.83,0,0,0,1.64-2.31h0Z"/><path class="cls-8" d="M732.61,467.7a8.87,8.87,0,0,1-8,0l-32.48-18.76c-2.19-1.27-2.19-3.33,0-4.6l27.66-15.95a8.77,8.77,0,0,1,8,0l32.46,18.73c2.18,1.24,2.18,3.35,0,4.61Z"/><path class="cls-7" d="M725.82,442.63,722,444.82l3.64,2.13-1.3.72-3.65-2.1-3.86,2.22-1.36-.8,3.79-2.22-3.62-2.1,1.29-.78,3.66,2.13,3.8-2.19Z"/><path class="cls-7" d="M724.57,453l8.27-9.31,1.46.84-8.25,9.31Z"/><path class="cls-7" d="M736.82,453.29l-1.44.84-4.26-2.5,1.4-.8Z"/><path class="cls-16" d="M721.83,472.54l-19.47-6.23-14.63-8.42a8.81,8.81,0,0,0-8,0l-12.29,7-17,4.85v6.4h0a2.8,2.8,0,0,0,1.65,2.31l32.45,18.76a9.07,9.07,0,0,0,8,0l27.6-16a2.73,2.73,0,0,0,1.66-2.31h0Z"/><path class="cls-9" d="M692.57,490.81a8.81,8.81,0,0,1-8,0l-32.45-18.76c-2.21-1.25-2.21-3.32,0-4.57l27.64-16a8.75,8.75,0,0,1,8,0l32.44,18.73c2.24,1.26,2.24,3.35,0,4.62Z"/><path class="cls-7" d="M680.12,472a6.13,6.13,0,0,0,1.19.64,7.75,7.75,0,0,0,3,.77,9.14,9.14,0,0,0,3.85-.56l-.06,0a6.31,6.31,0,0,1-3.32-.81c-1.9-1.11-2-2.71.06-3.87a8.44,8.44,0,0,1,7.85,0c2.56,1.46,1.9,3.39-.74,4.94a13.85,13.85,0,0,1-7,1.84,12.39,12.39,0,0,1-5.24-1.29c-.49-.24-1-.53-1.26-.71Zm7-2.75c-1.14.65-1.35,1.53-.2,2.2a4.34,4.34,0,0,0,2.66.49,2.26,2.26,0,0,0,.72-.28c1.47-.87,2.17-1.9.84-2.68A4.25,4.25,0,0,0,687.07,469.23Z"/><path class="cls-16" d="M681.8,495.66l-19.52-6.19L647.68,481a8.83,8.83,0,0,0-8,0l-12.26,7.07-17,4.77v6.43h0a2.79,2.79,0,0,0,1.63,2.31l32.44,18.75a9,9,0,0,0,8,0l27.64-15.95a2.92,2.92,0,0,0,1.68-2.35h0Z"/><path class="cls-9" d="M652.48,514a9,9,0,0,1-8,0L612,495.21c-2.23-1.26-2.23-3.34,0-4.61l27.64-16a9,9,0,0,1,8,0l32.44,18.76c2.19,1.28,2.19,3.35,0,4.61Z"/><path class="cls-7" d="M653.84,493.89a10.79,10.79,0,0,0-1.11-.64,8.8,8.8,0,0,0-6.82-.24l.05,0a6.29,6.29,0,0,1,3.51.79c1.9,1.1,2,2.7-.23,4a8.35,8.35,0,0,1-7.75,0c-2.65-1.56-2.08-3.53.64-5.13a13.35,13.35,0,0,1,6.75-1.71,12.41,12.41,0,0,1,5.49,1.32,7.73,7.73,0,0,1,1.08.55ZM647,496.68c1.3-.74,1.53-1.64.29-2.34a4.48,4.48,0,0,0-2.91-.39,2.43,2.43,0,0,0-.8.32c-1.38.84-1.92,1.92-.55,2.69A4.1,4.1,0,0,0,647,496.68Z"/><path class="cls-16" d="M641.72,518.8l-19.51-6.22-14.6-8.44a9.18,9.18,0,0,0-8,0l-12.28,7.11-17,4.79v6.42h0a2.91,2.91,0,0,0,1.68,2.31l32.45,18.73a9,9,0,0,0,8,0l27.63-16a2.78,2.78,0,0,0,1.67-2.31h0Z"/><path class="cls-9" d="M612.42,537.09a8.77,8.77,0,0,1-8,0L572,518.36c-2.19-1.28-2.19-3.38,0-4.63l27.63-16a8.92,8.92,0,0,1,8,0l32.44,18.74c2.22,1.26,2.22,3.34,0,4.62Z"/><path class="cls-7" d="M600.23,517.63a4.86,4.86,0,0,0,1.8,1.82,4,4,0,0,0,4,.25c1.29-.74.64-1.77-.67-2.48l-.93-.56,1.55-.88.92.56c.93.53,2.61,1,3.64.39.79-.46.88-1.14-.34-1.82a8.4,8.4,0,0,0-2.91-.91l1-1.14a11.28,11.28,0,0,1,4,1.33c2.27,1.3,2.18,2.71.77,3.51a6.06,6.06,0,0,1-4.59.32l0,0c1.08.9,1.14,2.09-.37,2.93-1.83,1.09-4.82,1-7.52-.51a5.58,5.58,0,0,1-2.33-2.22Z"/><path class="cls-16" d="M601.67,541.93l-19.53-6.2-14.61-8.43a8.88,8.88,0,0,0-8,0l-12.25,7.08-17.07,4.77v6.42h0a3,3,0,0,0,1.67,2.33l32.48,18.71a8.71,8.71,0,0,0,8,0l27.62-16a2.85,2.85,0,0,0,1.68-2.31h0Z"/><path class="cls-9" d="M572.37,560.22a8.77,8.77,0,0,1-8,0l-32.48-18.76c-2.23-1.23-2.23-3.32,0-4.61l27.65-16a8.69,8.69,0,0,1,8,0L600,539.6c2.2,1.29,2.2,3.36,0,4.66Z"/><path class="cls-7" d="M563.69,539.36a5.66,5.66,0,0,1,5.29-.07c1.49.9,1.46,2.14-.12,3.06a5.5,5.5,0,0,1-5.31,0C562,541.51,562.15,540.23,563.69,539.36Z"/><path class="cls-9" d="M815.65,480.41l-19.49-6.21-14.6-8.38a8.64,8.64,0,0,0-8,0l-12.26,7.06-17.07,4.77v6.4h0a2.94,2.94,0,0,0,1.67,2.35l32.46,18.7a8.75,8.75,0,0,0,8,0L814,489.16a2.8,2.8,0,0,0,1.62-2.31h0Z"/><path class="cls-8" d="M786.36,498.74a8.94,8.94,0,0,1-8,0L745.87,480c-2.18-1.27-2.18-3.33,0-4.64l27.66-16a9,9,0,0,1,8,0L814,478.12c2.17,1.28,2.17,3.37,0,4.64Z"/><polygon class="cls-7" points="805.38 483.53 789.58 474.42 769.35 481.37 775.07 475.02 775.07 475.02 765.77 469.6 763.77 470.8 771.54 475.31 764.41 483.16 766.42 484.3 789.13 476.55 803.33 484.75 805.38 483.53"/><path class="cls-9" d="M775.59,503.57l-19.5-6.2L741.49,489a8.9,8.9,0,0,0-8.07,0l-12.21,7-17,4.83v6.41h0a2.88,2.88,0,0,0,1.65,2.3l32.49,18.72a8.79,8.79,0,0,0,8,0L774,512.3a2.85,2.85,0,0,0,1.63-2.33h0Z"/><path class="cls-8" d="M746.3,521.83a8.67,8.67,0,0,1-8,0l-32.49-18.71c-2.2-1.28-2.2-3.37,0-4.66l27.6-15.95a9.09,9.09,0,0,1,8.07,0L774,501.28c2.22,1.24,2.22,3.34,0,4.61Z"/><path class="cls-7" d="M731.36,502.63,749,499.76l1.19.7-17.66,2.83Zm10.87-3a6.62,6.62,0,0,1-6.32.39c-1.53-.89-1.61-2.32.5-3.54a6.62,6.62,0,0,1,6.36-.32C744.42,497.12,744.18,498.46,742.23,499.62Zm-4.16-2.28c-1.28.7-1.76,1.53-1,2s2.13.19,3.47-.6c1.18-.7,1.82-1.43.92-1.95S739.31,496.61,738.07,497.34Zm7.18,9.24a6.48,6.48,0,0,1-6.33.35c-1.52-.87-1.6-2.27.53-3.49a6.57,6.57,0,0,1,6.31-.32C747.44,504.12,747.25,505.46,745.25,506.58Zm-4.18-2.27c-1.27.72-1.74,1.5-.94,2s2.12.21,3.45-.55,1.84-1.47.94-2S742.29,503.59,741.07,504.31Z"/><path class="cls-9" d="M735.49,526.69l-19.44-6.19L701.39,512a9,9,0,0,0-8,0l-12.24,7.1-17,4.77v6.43h0a2.8,2.8,0,0,0,1.62,2.31l32.45,18.75a9,9,0,0,0,8,0l27.62-16a2.69,2.69,0,0,0,1.65-2.3h0Z"/><path class="cls-8" d="M706.22,545a8.69,8.69,0,0,1-8,0l-32.45-18.71c-2.2-1.3-2.2-3.35,0-4.63l27.67-16a8.83,8.83,0,0,1,8,0l32.45,18.74c2.21,1.27,2.21,3.35,0,4.62Z"/><path class="cls-7" d="M696.59,529.58l1.06-2c.39-.76.64-1.31,1-1.89v0c-.94.23-1.86.39-3.19.64l-3.4.66-2.36-1.39,9.12-1.33,2.35-5.14,2.37,1.4-1.11,2c-.33.6-.65,1.09-.95,1.63l0,0c1-.25,1.74-.39,2.77-.58l3.58-.65,2.36,1.38-8.85,1.28L699,531Z"/><path class="cls-9" d="M687.81,550.48l-26.47-15.29a9.13,9.13,0,0,0-8.06,0l-63.4,36.65L584,570.22v6.38h0a2.66,2.66,0,0,0,1.64,2.29l32.42,18.75a8.84,8.84,0,0,0,8,0l67.73-39.08a2.87,2.87,0,0,0,1.66-2.34v-6.36Z"/><path class="cls-8" d="M693.82,547.52,661.34,528.8a8.82,8.82,0,0,0-8.06,0l-67.65,39.09c-2.23,1.28-2.23,3.35,0,4.6l32.42,18.75a9,9,0,0,0,8,0l67.73-39.09C696,550.87,696,548.78,693.82,547.52Z"/><path class="cls-7" d="M647.16,555.8l-4.83,2.78,4.64,2.68-1.69.94-4.6-2.66-4.86,2.8-1.76-1,4.83-2.79-4.62-2.68,1.67-1,4.63,2.68,4.81-2.8Z"/><path class="cls-9" d="M863.77,508.19,844.26,502l-14.6-8.46a9,9,0,0,0-8.07,0l-12.22,7.09-17,4.79v6.41h0a2.79,2.79,0,0,0,1.66,2.31l32.44,18.75a9,9,0,0,0,8,0l27.64-16a2.77,2.77,0,0,0,1.67-2.29h0Z"/><path class="cls-8" d="M834.46,526.49a9.07,9.07,0,0,1-8,0L794,507.73c-2.21-1.27-2.21-3.35,0-4.61l27.6-16a8.9,8.9,0,0,1,8.07,0l32.44,18.73c2.16,1.24,2.16,3.35,0,4.64Z"/><polygon class="cls-7" points="843.27 515.96 834.06 506.18 831.29 507.77 814.95 498.36 812.8 499.65 829.04 509.05 826.29 510.64 843.27 515.96"/><path class="cls-9" d="M823.67,531.34l-19.49-6.22-14.64-8.43a8.71,8.71,0,0,0-8,0l-12.25,7.08-17.06,4.78V535h0a2.78,2.78,0,0,0,1.65,2.3L786.36,556a8.9,8.9,0,0,0,8,0l27.62-16a2.85,2.85,0,0,0,1.68-2.31h0Z"/><path class="cls-8" d="M794.37,549.61a9,9,0,0,1-8,0L753.9,530.86c-2.19-1.26-2.19-3.36,0-4.62l27.66-16a8.77,8.77,0,0,1,8,0L822,529c2.24,1.29,2.24,3.35,0,4.6Z"/><path class="cls-7" d="M786.22,528.76c1.39-.88,3.07-2,4.63-2.83l-.05,0c-1.74.6-3.77,1.2-5.69,1.75l-6.59,1.88-1.57-.93,3.36-3.68c1-1.08,2.14-2.19,3.23-3.18l0,0-5,2.68-4.79,2.48-2-1.12,12.11-6.12,2.74,1.55-3.09,3.52c-.91,1-1.92,2-2.9,2.85l.07.05c1.52-.55,3.29-1.11,5-1.63l6.14-1.72,2.68,1.54-10.68,6.92-2-1.15Z"/><path class="cls-7" d="M799.34,528.59l-6.65,3.81c-2.19,1.27-2.27,2.42-.86,3.22s3.4.77,5.63-.49l6.56-3.82,2.1,1.19-6.46,3.74a9.24,9.24,0,0,1-9.6.29c-2.61-1.51-2.84-3.33.7-5.39l6.5-3.74Z"/><path class="cls-9" d="M783.6,554.47l-19.49-6.22-14.62-8.44a8.94,8.94,0,0,0-8,0l-12.26,7.1-17,4.77v6.43h0a2.73,2.73,0,0,0,1.58,2.31l32.5,18.72a8.77,8.77,0,0,0,8,0l27.65-16a2.79,2.79,0,0,0,1.64-2.3h0Z"/><path class="cls-8" d="M754.31,572.74a8.9,8.9,0,0,1-8,0L713.8,554c-2.17-1.3-2.17-3.36,0-4.63l27.69-16a8.69,8.69,0,0,1,8,0L782,552.15c2.24,1.29,2.24,3.36,0,4.63Z"/><path class="cls-7" d="M741.12,554.26l16.28-4.69,1.42.85-16.28,4.66Z"/><path class="cls-9" d="M743.57,577.61,724,571.39,709.43,563a8.84,8.84,0,0,0-8,0L689.16,570l-17,4.76v6.44h0a2.79,2.79,0,0,0,1.63,2.3l32.48,18.72a8.88,8.88,0,0,0,8,0l27.65-16a2.81,2.81,0,0,0,1.7-2.3h0Z"/><path class="cls-8" d="M714.22,595.89a9.13,9.13,0,0,1-8,0l-32.48-18.75c-2.2-1.29-2.2-3.38,0-4.65l27.65-15.94a8.9,8.9,0,0,1,8,0l32.44,18.71c2.2,1.3,2.2,3.4,0,4.62Z"/><path class="cls-7" d="M711.7,576.79l-1.43.82L706,575.15l1.4-.82Z"/><path class="cls-9" d="M703.49,600.73l-19.56-6.2-14.57-8.43a8.73,8.73,0,0,0-8,0l-12.25,7-17,4.79v6.42h0a2.8,2.8,0,0,0,1.64,2.32l32.46,18.74a8.75,8.75,0,0,0,8,0l27.65-16a2.89,2.89,0,0,0,1.68-2.33h0Z"/><path class="cls-8" d="M674.16,619a8.69,8.69,0,0,1-8,0L633.7,600.27c-2.17-1.3-2.17-3.36,0-4.62l27.64-16a9,9,0,0,1,8,0l32.45,18.74c2.21,1.26,2.21,3.37,0,4.65Z"/><path class="cls-7" d="M662.1,597.94l1.34-.76,8.67,5-1.31.77Zm3.4-2,1.32-.77,8.68,5-1.29.73Z"/><path class="cls-7" d="M585.73,772.23l437.36,255.22,530.38-305.17s117.47-49.76,39-210.79c-43.82-89.93,24.16-202.63,60.4-220.82L1210.24,35.42S1159.11,73,1136.83,159.28c-12.82,49.64,0,119,30.64,174.09,32.87,59.17-50,138.07-108.86,171.39Z"/><g class="cls-2"><g class="cls-17"><path class="cls-18" d="M1600.63,857.79l0,7.54c0-2.35,1.55-4.71,4.65-6.5,6.19-3.57,16.17-3.59,22.31,0,3,1.78,4.58,4.1,4.58,6.43l0-7.54c0-2.33-1.53-4.65-4.59-6.42-6.13-3.58-16.12-3.56-22.3,0-3.1,1.79-4.66,4.15-4.65,6.5Z"/></g></g><path class="cls-19" d="M1573.51,830.53l.53-.32a38.58,38.58,0,0,1,18.77-4.59c7.33,0,14.26,1.59,19.45,4.61l51.64,30c5.2,3,8,7,7.87,11.29s-2.92,8-8,10.87l-.52.3L1610,911.93c-11.25,6.18-29.26,6.06-40.17-.29l-46.62-27.1c-10.9-6.33-11.11-16.78-.38-23.27Zm56.17,34.94c7.39-4.26,7.42-11.19.09-15.45s-19.28-4.26-26.66,0-7.39,11.18-.09,15.43,19.28,4.27,26.66,0Z"/><path class="cls-20" d="M1569.05,828.05c.2-.13.4-.25.61-.36,13-7.51,34-7.54,47,0l51.62,30c13,7.54,12.87,19.69-.14,27.2l-.62.35-53.24,29.26c-13.65,7.48-35.59,7.33-48.81-.35l-5.12-3-6.79-3.94-4.88-2.83-6.54-3.81L1524,890.05l-5.12-3c-13.22-7.69-13.42-20.4-.46-28.28Zm.78,83.59c10.91,6.35,28.92,6.47,40.17.29l53.27-29.25.52-.3c5.06-2.91,7.89-6.76,8-10.87s-2.67-8.26-7.87-11.29l-51.64-30c-5.19-3-12.12-4.66-19.45-4.61a38.58,38.58,0,0,0-18.77,4.59l-.53.32-50.68,30.74c-10.73,6.49-10.52,16.94.38,23.27l46.62,27.1Z"/><path class="cls-21" d="M1629.77,850c7.33,4.26,7.3,11.19-.09,15.45s-19.32,4.25-26.66,0-7.29-11.17.09-15.43S1622.46,845.77,1629.77,850Zm-2.26,14.19c6.18-3.57,6.21-9.36.07-12.93s-16.12-3.56-22.3,0-6.21,9.34-.07,12.91,16.12,3.57,22.3,0Z"/><polygon class="cls-22" points="1504.68 901.18 1504.7 908.72 1506.24 911.08 1506.22 903.55 1504.68 901.18"/><path class="cls-18" d="M1518.83,887.08l5.12,3,0,7.54-5.12-3c-6.68-3.87-10-9-10-14.22l0-7.54C1508.79,878,1512.15,883.2,1518.83,887.08Z"/><path class="cls-18" d="M1614.26,914.52l53.24-29.26.62-.35c6.55-3.78,9.84-8.73,9.83-13.7l0,7.54c0,5-3.28,9.92-9.83,13.7l-.62.35-53.24,29.26c-13.65,7.47-35.59,7.32-48.81-.35l-5.12-3,0-7.54,5.12,3C1578.67,921.85,1600.61,922,1614.26,914.52Z"/><polygon class="cls-23" points="1424.15 958.21 1424.16 965.75 1427.14 974.55 1427.11 967.02 1424.15 958.21"/><polygon class="cls-24" points="1504.68 901.18 1506.22 903.55 1503.19 905.3 1496.72 916.3 1478.85 919.35 1472.18 923.2 1464.66 934.82 1460.69 937.11 1447.07 937.7 1442.55 940.32 1440.42 948.82 1423.99 951.03 1424.15 958.21 1427.11 967.02 1542.14 900.62 1523.95 890.05 1509.46 898.41 1504.68 901.18"/><polygon class="cls-25" points="1427.11 967.02 1427.13 974.55 1438.05 975.83 1438.03 968.29 1427.11 967.02"/><polygon class="cls-26" points="1542.12 900.61 1427.11 967.02 1438.03 968.29 1548.66 904.41 1542.12 900.61"/><polygon class="cls-27" points="1438.03 968.28 1438.05 975.81 1446.23 976.77 1446.21 969.23 1438.03 968.28"/><polygon class="cls-24" points="1438.03 968.28 1446.21 969.23 1553.55 907.25 1548.66 904.41 1438.03 968.28"/><polygon class="cls-26" points="1560.33 911.19 1553.54 907.25 1446.2 969.23 1457.56 970.53 1560.33 911.19"/><polygon class="cls-18" points="1457.56 970.53 1457.58 978.07 1560.35 918.73 1560.33 911.19 1457.56 970.53"/><polygon class="cls-25" points="1446.2 969.23 1446.23 976.76 1457.58 978.07 1457.56 970.53 1446.2 969.23"/><path class="cls-5" d="M1108.26,1027h0l32.65-18.6c.64-2.85,1.92-4.91,3.94-6l28.9-16.54,1-.55h0l5.65-3.19h0l.73-.46,8.58-4.84a8.35,8.35,0,0,1,7.11-.35l387.28-220.68a5.67,5.67,0,0,1,1.19-.42v-.08l56.58-17.18,17.84-5.42L1646,745.34l-43.59,40,0-.07-.91.81-387.26,220.62c-.67,2.81-2.05,4.93-4,6l-4.61,2.62-.06,0-4.64,2.63h0l-5.65,3.23h0l-4.66,2.7h0l-25.22,14.36h0a8.5,8.5,0,0,1-7.2.34l-32.59,18.65h0c-2.27,1.24-5.29,1-8.7-.91-6.78-4-12.25-13.55-12.22-21.36C1104.64,1031.1,1106,1028.35,1108.26,1027Z"/><polygon class="cls-28" points="1642.29 734.4 1656.03 721.76 1638.17 727.17 1642.29 734.4"/><path class="cls-29" d="M1581.6,744.37l17.07,30,43.62-40h0a2.27,2.27,0,0,0,.61-1.74,6.26,6.26,0,0,0-2.88-5.08,2.27,2.27,0,0,0-1.85-.41h0Z"/><path class="cls-19" d="M1186.31,969.49l17.25,30.27,394.18-224.62c2.2-1.29,3.53-4,3.6-8,0-7.8-5.46-17.44-12.19-21.39-3.44-1.95-6.46-2.16-8.76-.89Z"/><polygon class="cls-30" points="1415.72 875.57 1415.71 869.89 1278.86 948.05 1278.84 953.68 1415.72 875.57"/><polygon class="cls-30" points="1272.88 957.1 1272.97 951.4 1239.44 970.59 1239.44 976.24 1272.88 957.1"/><path class="cls-31" d="M1195,970.4c6.76,3.94,12.21,13.54,12.15,21.37s-5.5,11-12.29,7.07-12.23-13.52-12.18-21.41S1188.21,966.41,1195,970.4Z"/><path class="cls-28" d="M1194.93,980.21a8.61,8.61,0,0,1,3.82,6.65c0,2.45-1.74,3.36-3.85,2.18a8.64,8.64,0,0,1-3.75-6.68C1191.14,980,1192.79,979,1194.93,980.21Z"/><path class="cls-32" d="M1141.17,991.54l20.53,35.89,44.79-25.64c2.66-1.48,4.31-4.8,4.33-9.42.07-9.36-6.39-20.73-14.5-25.35-4-2.4-7.63-2.6-10.29-1.11Z"/><path class="cls-33" d="M1151.45,992.57c8.09,4.72,14.57,16,14.5,25.35s-6.59,13.14-14.64,8.41-14.54-16.07-14.48-25.41S1143.43,987.86,1151.45,992.57Z"/><path class="cls-34" d="M1156.09,989.92c8,4.7,14.57,16.11,14.54,25.38,0,4.7-1.68,7.94-4.31,9.42l4.67-2.66c2.63-1.5,4.32-4.76,4.34-9.4,0-9.35-6.4-20.72-14.51-25.41-4-2.35-7.62-2.54-10.29-1.07l-4.73,2.65C1148.46,987.33,1152.08,987.59,1156.09,989.92Z"/><path class="cls-34" d="M1166.38,984c8,4.74,14.56,16.06,14.53,25.41,0,4.66-1.71,7.9-4.36,9.43l4.73-2.69c2.65-1.53,4.32-4.78,4.33-9.46.07-9.3-6.42-20.66-14.51-25.41-4-2.29-7.66-2.55-10.28-1l-4.76,2.69C1158.75,981.51,1162.36,981.69,1166.38,984Z"/><path class="cls-34" d="M1176.7,978.19c8.08,4.69,14.56,16,14.5,25.36,0,4.67-1.72,7.9-4.3,9.44l4.66-2.68c2.73-1.49,4.32-4.77,4.34-9.39.06-9.38-6.49-20.74-14.48-25.43-4-2.34-7.72-2.57-10.34-1.07l-4.74,2.71C1169,975.64,1172.68,975.86,1176.7,978.19Z"/><path class="cls-34" d="M1186.91,972.34c8.12,4.65,14.66,16,14.57,25.35,0,4.65-1.68,7.92-4.29,9.45l4.66-2.7c2.69-1.54,4.32-4.78,4.33-9.44,0-9.33-6.42-20.68-14.46-25.36-4.06-2.37-7.68-2.58-10.36-1.07l-4.63,2.67C1179.31,969.71,1182.93,970,1186.91,972.34Z"/><path class="cls-35" d="M1104.63,1016.06l17.26,30.31,37.78-21.57c2.23-1.28,3.68-4.06,3.66-8,.06-7.83-5.43-17.42-12.19-21.38-3.41-2-6.5-2.2-8.76-.9Z"/><path class="cls-36" d="M1113.36,1017c6.76,4,12.17,13.54,12.16,21.36s-5.55,11-12.37,7.07-12.23-13.51-12.18-21.39S1106.52,1013.1,1113.36,1017Z"/><g class="cls-2"><polygon class="cls-37" points="447.07 692.02 447.04 701.66 357.13 753.91 357.15 744.27 447.07 692.02"/><polygon class="cls-37" points="357.15 744.27 357.13 753.91 152.83 635.96 152.86 626.32 357.15 744.27"/><polygon class="cls-38" points="447.07 692.02 357.15 744.27 152.86 626.32 242.77 574.07 447.07 692.02"/></g><path class="cls-39" d="M420.9,685c-5.22,3-5.19,8,.06,11L367,727.35c-5.25-3-13.74-3-19,0L179,630.2c5.58-3.24,5.62-8.07.57-11.11l53.92-31.34c5.25,3,13.74,3,19,0Z"/><path class="cls-38" d="M324.34,643.55c13.52,7.8,13.59,20.45.16,28.25s-35.26,7.8-48.77,0-13.58-20.45-.16-28.25S310.83,635.75,324.34,643.55Z"/><g class="cls-2"><polygon class="cls-37" points="447.07 681.15 447.04 690.79 357.13 743.04 357.15 733.4 447.07 681.15"/><polygon class="cls-37" points="357.15 733.4 357.13 743.04 152.83 625.09 152.86 615.45 357.15 733.4"/><polygon class="cls-38" points="447.07 681.15 357.15 733.4 152.86 615.45 242.77 563.2 447.07 681.15"/></g><path class="cls-39" d="M420.9,674.16c-5.22,3-5.19,8,.06,11L367,716.48c-5.25-3-13.74-3-19,0L179,619.33c5.58-3.24,5.62-8.07.57-11.11l53.92-31.34c5.25,3,13.74,3,19,0Z"/><path class="cls-38" d="M324.34,632.68c13.52,7.8,13.59,20.45.16,28.25s-35.26,7.8-48.77,0-13.58-20.45-.16-28.25S310.83,624.88,324.34,632.68Z"/><g class="cls-2"><polygon class="cls-37" points="447.07 670.28 447.04 679.92 357.13 732.17 357.15 722.53 447.07 670.28"/><polygon class="cls-37" points="357.15 722.53 357.13 732.17 152.83 614.22 152.86 604.58 357.15 722.53"/><polygon class="cls-38" points="447.07 670.28 357.15 722.53 152.86 604.58 242.77 552.33 447.07 670.28"/></g><path class="cls-39" d="M420.9,663.29c-5.22,3-5.19,8,.06,11L367,705.61c-5.25-3-13.74-3-19,0L179,608.46c5.58-3.24,5.62-8.07.57-11.11L233.45,566c5.25,3,13.74,3,19,0Z"/><path class="cls-38" d="M324.34,621.81c13.52,7.8,13.59,20.45.16,28.25s-35.26,7.8-48.77,0-13.58-20.45-.16-28.25S310.83,614,324.34,621.81Z"/><g class="cls-2"><polygon class="cls-37" points="447.07 659.41 447.04 669.05 357.13 721.3 357.15 711.66 447.07 659.41"/><polygon class="cls-37" points="357.15 711.66 357.13 721.3 152.83 603.35 152.86 593.71 357.15 711.66"/><polygon class="cls-38" points="447.07 659.41 357.15 711.66 152.86 593.71 242.77 541.46 447.07 659.41"/></g><path class="cls-39" d="M420.9,652.42c-5.22,3-5.19,8,.06,11L367,694.74c-5.25-3-13.74-3-19,0L179,597.59c5.58-3.24,5.62-8.07.57-11.11l53.92-31.34c5.25,3,13.74,3,19,0Z"/><path class="cls-38" d="M324.34,610.94c13.52,7.8,13.59,20.45.16,28.25s-35.26,7.8-48.77,0-13.58-20.45-.16-28.25S310.83,603.14,324.34,610.94Z"/><g class="cls-2"><polygon class="cls-37" points="447.07 648.54 447.04 658.18 357.13 710.43 357.15 700.79 447.07 648.54"/><polygon class="cls-37" points="357.15 700.79 357.13 710.43 152.83 592.48 152.86 582.84 357.15 700.79"/><polygon class="cls-38" points="447.07 648.54 357.15 700.79 152.86 582.84 242.77 530.59 447.07 648.54"/></g><path class="cls-39" d="M420.9,641.55c-5.22,3-5.19,8,.06,11L367,683.87c-5.25-3-13.74-3-19,0L179,586.72c5.58-3.24,5.62-8.07.57-11.11l53.92-31.34c5.25,3,13.74,3,19,0Z"/><path class="cls-38" d="M324.34,600.07c13.52,7.8,13.59,20.45.16,28.25s-35.26,7.8-48.77,0-13.58-20.45-.16-28.25S310.83,592.27,324.34,600.07Z"/><g class="cls-2"><polygon class="cls-37" points="447.07 637.67 447.04 647.31 357.13 699.56 357.15 689.92 447.07 637.67"/><polygon class="cls-37" points="357.15 689.92 357.13 699.56 152.83 581.61 152.86 571.97 357.15 689.92"/><polygon class="cls-38" points="447.07 637.67 357.15 689.92 152.86 571.97 242.77 519.72 447.07 637.67"/></g><path class="cls-39" d="M420.9,630.68c-5.22,3-5.19,8,.06,11L367,673c-5.25-3-13.74-3-19,0L179,575.85c5.58-3.23,5.62-8.07.57-11.11l53.92-31.34c5.25,3,13.74,3,19,0Z"/><path class="cls-38" d="M324.34,589.2c13.52,7.8,13.59,20.45.16,28.25s-35.26,7.8-48.77,0-13.58-20.45-.16-28.25S310.83,581.4,324.34,589.2Z"/><g class="cls-2"><polygon class="cls-37" points="447.07 626.8 447.04 636.44 357.13 688.69 357.15 679.05 447.07 626.8"/><polygon class="cls-37" points="357.15 679.05 357.13 688.69 152.83 570.74 152.86 561.1 357.15 679.05"/><polygon class="cls-38" points="447.07 626.8 357.15 679.05 152.86 561.1 242.77 508.85 447.07 626.8"/></g><path class="cls-39" d="M420.9,619.81c-5.22,3-5.19,8,.06,11L367,662.13c-5.25-3-13.74-3-19,0L179,565c5.58-3.23,5.62-8.07.57-11.11l53.92-31.34c5.25,3,13.74,3,19,0Z"/><path class="cls-38" d="M324.34,578.33c13.52,7.8,13.59,20.45.16,28.25s-35.26,7.8-48.77,0-13.58-20.45-.16-28.25S310.83,570.53,324.34,578.33Z"/><g class="cls-2"><polygon class="cls-37" points="447.07 626.8 447.04 636.44 357.13 688.69 357.15 679.05 447.07 626.8"/><polygon class="cls-37" points="357.15 679.05 357.13 688.69 152.83 570.74 152.86 561.1 357.15 679.05"/><polygon class="cls-38" points="447.07 626.79 357.15 679.05 290.4 640.51 278.62 633.71 237.96 610.23 226.19 603.43 152.86 561.1 242.77 508.85 316.39 551.35 328.18 558.16 368.83 581.62 380.62 588.43 447.07 626.79"/></g><path class="cls-39" d="M420.9,619.81c-5.22,3-5.19,8,.06,11L367,662.13c-5.25-3-13.74-3-19,0L179,565c5.58-3.23,5.62-8.07.57-11.11l53.92-31.34c5.25,3,13.74,3,19,0Z"/><path class="cls-38" d="M324.34,578.33c13.52,7.8,13.59,20.45.16,28.25s-35.26,7.8-48.77,0-13.58-20.45-.16-28.25S310.83,570.53,324.34,578.33Z"/><polygon class="cls-40" points="278.23 708.56 237.58 685.07 237.58 610.45 278.23 633.93 278.23 708.56"/><polygon class="cls-41" points="290.01 715.34 278.23 708.56 278.23 633.93 290.01 640.73 290.01 715.34"/><polygon class="cls-41" points="237.58 685.07 225.8 678.26 225.8 603.66 237.58 610.45 237.58 685.07"/><polygon class="cls-42" points="368.83 581.62 278.62 633.71 278.24 633.93 237.58 610.45 237.96 610.23 328.18 558.16 368.83 581.62"/><polygon class="cls-43" points="380.62 588.43 290.4 640.51 290.01 640.73 278.24 633.93 278.62 633.71 368.83 581.62 380.62 588.43"/><polygon class="cls-43" points="328.18 558.16 237.96 610.23 237.58 610.45 225.81 603.66 226.19 603.43 316.39 551.35 328.18 558.16"/><g class="cls-2"><polygon class="cls-37" points="511.23 581.34 511.2 590.98 421.29 643.23 421.32 633.59 511.23 581.34"/><polygon class="cls-37" points="421.32 633.59 421.29 643.23 217 525.28 217.02 515.64 421.32 633.59"/><polygon class="cls-38" points="511.23 581.34 421.32 633.59 217.02 515.64 306.94 463.39 511.23 581.34"/></g><path class="cls-39" d="M485.07,574.36c-5.22,3-5.2,7.95.06,11l-53.92,31.33c-5.26-3-13.75-3-19,0L243.13,519.52c5.58-3.23,5.62-8.07.56-11.11l53.92-31.33c5.25,3,13.74,3,19,0Z"/><path class="cls-38" d="M388.51,532.87c13.51,7.8,13.58,20.45.16,28.25s-35.26,7.8-48.78,0-13.58-20.45-.15-28.25S375,525.07,388.51,532.87Z"/><g class="cls-2"><polygon class="cls-37" points="511.23 570.47 511.2 580.11 421.29 632.36 421.32 622.72 511.23 570.47"/><polygon class="cls-37" points="421.32 622.72 421.29 632.36 217 514.41 217.02 504.77 421.32 622.72"/><polygon class="cls-38" points="511.23 570.47 421.32 622.72 217.02 504.77 306.94 452.52 511.23 570.47"/></g><path class="cls-39" d="M485.07,563.49c-5.22,3-5.2,8,.06,11L431.21,605.8c-5.26-3-13.75-3-19,0L243.13,508.65c5.58-3.23,5.62-8.07.56-11.11l53.92-31.33c5.25,3,13.74,3,19,0Z"/><path class="cls-38" d="M388.51,522c13.51,7.8,13.58,20.45.16,28.25s-35.26,7.8-48.78,0-13.58-20.45-.15-28.25S375,514.2,388.51,522Z"/><g class="cls-2"><polygon class="cls-37" points="511.23 559.6 511.2 569.24 421.29 621.49 421.32 611.85 511.23 559.6"/><polygon class="cls-37" points="421.32 611.85 421.29 621.49 217 503.54 217.02 493.9 421.32 611.85"/><polygon class="cls-38" points="511.23 559.6 421.32 611.85 217.02 493.9 306.94 441.65 511.23 559.6"/></g><path class="cls-39" d="M485.07,552.62c-5.22,3-5.2,8,.06,11l-53.92,31.33c-5.26-3-13.75-3-19,0L243.13,497.78c5.58-3.23,5.62-8.07.56-11.1l53.92-31.34c5.25,3,13.74,3,19,0Z"/><path class="cls-38" d="M388.51,511.13c13.51,7.8,13.58,20.45.16,28.25s-35.26,7.8-48.78,0-13.58-20.45-.15-28.25S375,503.33,388.51,511.13Z"/><g class="cls-2"><polygon class="cls-37" points="511.23 548.73 511.2 558.37 421.29 610.62 421.32 600.98 511.23 548.73"/><polygon class="cls-37" points="421.32 600.98 421.29 610.62 217 492.67 217.02 483.03 421.32 600.98"/><polygon class="cls-38" points="511.23 548.73 421.32 600.98 217.02 483.03 306.94 430.78 511.23 548.73"/></g><path class="cls-39" d="M485.07,541.75c-5.22,3-5.2,8,.06,11l-53.92,31.34c-5.26-3-13.75-3-19,0L243.13,486.91c5.58-3.23,5.62-8.06.56-11.1l53.92-31.34c5.25,3,13.74,3,19,0Z"/><path class="cls-38" d="M388.51,500.26c13.51,7.8,13.58,20.45.16,28.25s-35.26,7.8-48.78,0-13.58-20.45-.15-28.25S375,492.46,388.51,500.26Z"/><g class="cls-2"><polygon class="cls-37" points="511.23 537.86 511.2 547.5 421.29 599.75 421.32 590.11 511.23 537.86"/><polygon class="cls-37" points="421.32 590.11 421.29 599.75 217 481.8 217.02 472.16 421.32 590.11"/><polygon class="cls-38" points="511.23 537.86 421.32 590.11 217.02 472.16 306.94 419.91 511.23 537.86"/></g><path class="cls-39" d="M485.07,530.88c-5.22,3-5.2,8,.06,11L431.21,573.2c-5.26-3-13.75-3-19,0L243.13,476c5.58-3.23,5.62-8.06.56-11.1l53.92-31.34c5.25,3,13.74,3,19,0Z"/><path class="cls-38" d="M388.51,489.39c13.51,7.81,13.58,20.45.16,28.25s-35.26,7.81-48.78,0-13.58-20.45-.15-28.25S375,481.59,388.51,489.39Z"/><g class="cls-2"><polygon class="cls-37" points="511.23 526.99 511.2 536.63 421.29 588.88 421.32 579.24 511.23 526.99"/><polygon class="cls-37" points="421.32 579.24 421.29 588.88 217 470.93 217.02 461.29 421.32 579.24"/><polygon class="cls-38" points="511.23 526.99 421.32 579.24 217.02 461.29 306.94 409.04 511.23 526.99"/></g><path class="cls-39" d="M485.07,520c-5.22,3-5.2,8,.06,11l-53.92,31.34c-5.26-3-13.75-3-19,0L243.13,465.17c5.58-3.23,5.62-8.06.56-11.1l53.92-31.34c5.25,3,13.74,3,19,0Z"/><path class="cls-38" d="M388.51,478.52c13.51,7.81,13.58,20.45.16,28.25s-35.26,7.81-48.78,0-13.58-20.45-.15-28.25S375,470.72,388.51,478.52Z"/><g class="cls-2"><polygon class="cls-37" points="511.23 516.12 511.2 525.76 421.29 578.01 421.32 568.37 511.23 516.12"/><polygon class="cls-37" points="421.32 568.37 421.29 578.01 217 460.06 217.02 450.42 421.32 568.37"/><polygon class="cls-38" points="511.23 516.12 421.32 568.37 217.02 450.42 306.94 398.17 511.23 516.12"/></g><path class="cls-39" d="M485.07,509.14c-5.22,3-5.2,8,.06,11l-53.92,31.34c-5.26-3-13.75-3-19,0L243.13,454.3c5.58-3.23,5.62-8.06.56-11.1l53.92-31.34c5.25,3,13.74,3,19,0Z"/><path class="cls-38" d="M388.51,467.65c13.51,7.81,13.58,20.45.16,28.25s-35.26,7.81-48.78,0-13.58-20.45-.15-28.25S375,459.85,388.51,467.65Z"/><g class="cls-2"><polygon class="cls-37" points="511.23 516.12 511.2 525.76 421.29 578.01 421.32 568.37 511.23 516.12"/><polygon class="cls-37" points="421.32 568.37 421.29 578.01 217 460.06 217.02 450.42 421.32 568.37"/><polygon class="cls-38" points="511.23 516.12 421.32 568.37 354.57 529.83 342.79 523.03 302.12 499.55 290.36 492.76 217.02 450.42 306.93 398.17 380.56 440.68 392.34 447.48 432.99 470.95 444.78 477.76 511.23 516.12"/></g><path class="cls-39" d="M485.07,509.14c-5.22,3-5.2,8,.06,11l-53.92,31.34c-5.26-3-13.75-3-19,0L243.13,454.3c5.58-3.23,5.62-8.06.56-11.1l53.92-31.34c5.25,3,13.74,3,19,0Z"/><path class="cls-38" d="M388.51,467.65c13.51,7.81,13.58,20.45.16,28.25s-35.26,7.81-48.78,0-13.58-20.45-.15-28.25S375,459.85,388.51,467.65Z"/><polygon class="cls-40" points="342.4 597.89 301.74 574.39 301.74 499.77 342.4 523.25 342.4 597.89"/><polygon class="cls-41" points="354.18 604.67 342.4 597.89 342.4 523.25 354.18 530.06 354.18 604.67"/><polygon class="cls-41" points="301.74 574.39 289.96 567.59 289.96 492.98 301.74 499.77 301.74 574.39"/><polygon class="cls-42" points="432.99 470.95 342.79 523.03 342.4 523.25 301.74 499.77 302.12 499.55 392.34 447.48 432.99 470.95"/><polygon class="cls-43" points="444.78 477.76 354.57 529.83 354.18 530.06 342.4 523.25 342.79 523.03 432.99 470.95 444.78 477.76"/><polygon class="cls-43" points="392.34 447.48 302.12 499.55 301.74 499.77 289.97 492.98 290.36 492.76 380.56 440.68 392.34 447.48"/><g class="cls-2"><polygon class="cls-37" points="299.52 746.19 299.55 756.15 393.95 810.13 393.92 800.17 299.52 746.19"/><polygon class="cls-37" points="393.92 800.17 393.95 810.13 608.44 688.26 608.41 678.3 393.92 800.17"/><polygon class="cls-38" points="299.52 746.19 393.92 800.17 608.41 678.3 514.01 624.32 299.52 746.19"/></g><path class="cls-39" d="M327,739c5.48,3.13,5.45,8.21-.06,11.35l56.61,32.37c5.51-3.13,14.42-3.13,19.91,0L581,682.31c-5.86-3.34-5.9-8.33-.59-11.47L523.8,638.46c-5.51,3.13-14.43,3.13-19.91,0Z"/><path class="cls-38" d="M428.37,696.11c-14.19,8.06-14.26,21.13-.17,29.19s37,8.06,51.2,0,14.27-21.13.17-29.19S442.55,688.05,428.37,696.11Z"/><g class="cls-2"><polygon class="cls-37" points="299.52 734.96 299.55 744.91 393.95 798.9 393.92 788.94 299.52 734.96"/><polygon class="cls-37" points="393.92 788.94 393.95 798.9 608.44 677.03 608.41 667.07 393.92 788.94"/><polygon class="cls-38" points="299.52 734.96 393.92 788.94 608.41 667.07 514.01 613.08 299.52 734.96"/></g><path class="cls-39" d="M327,727.74c5.48,3.13,5.45,8.21-.06,11.35l56.61,32.37c5.51-3.13,14.42-3.13,19.91,0L581,671.08c-5.86-3.34-5.9-8.33-.59-11.48L523.8,627.23c-5.51,3.13-14.43,3.13-19.91,0Z"/><path class="cls-38" d="M428.37,684.88c-14.19,8.06-14.26,21.12-.17,29.18s37,8.07,51.2,0,14.27-21.12.17-29.19S442.55,676.81,428.37,684.88Z"/><g class="cls-2"><polygon class="cls-37" points="299.52 723.72 299.55 733.68 393.95 787.67 393.92 777.71 299.52 723.72"/><polygon class="cls-37" points="393.92 777.71 393.95 787.67 608.44 665.8 608.41 655.84 393.92 777.71"/><polygon class="cls-38" points="299.52 723.72 393.92 777.71 608.41 655.84 514.01 601.85 299.52 723.72"/></g><path class="cls-39" d="M327,716.51c5.48,3.13,5.45,8.21-.06,11.35l56.61,32.37c5.51-3.13,14.42-3.13,19.91,0L581,659.85c-5.86-3.34-5.9-8.34-.59-11.48L523.8,616c-5.51,3.13-14.43,3.13-19.91,0Z"/><path class="cls-38" d="M428.37,673.64c-14.19,8.07-14.26,21.13-.17,29.19s37,8.06,51.2,0,14.27-21.13.17-29.19S442.55,665.58,428.37,673.64Z"/><g class="cls-2"><polygon class="cls-37" points="299.52 712.49 299.55 722.45 393.95 776.44 393.92 766.48 299.52 712.49"/><polygon class="cls-37" points="393.92 766.48 393.95 776.44 608.44 654.57 608.41 644.61 393.92 766.48"/><polygon class="cls-38" points="299.52 712.49 393.92 766.48 608.41 644.61 514.01 590.62 299.52 712.49"/></g><path class="cls-39" d="M327,705.28c5.48,3.13,5.45,8.21-.06,11.34L383.54,749c5.51-3.13,14.42-3.13,19.91,0L581,648.62c-5.86-3.34-5.9-8.34-.59-11.48L523.8,604.76c-5.51,3.14-14.43,3.14-19.91,0Z"/><path class="cls-38" d="M428.37,662.41c-14.19,8.06-14.26,21.13-.17,29.19s37,8.06,51.2,0,14.27-21.13.17-29.19S442.55,654.35,428.37,662.41Z"/><g class="cls-2"><polygon class="cls-37" points="299.52 701.26 299.55 711.22 393.95 765.21 393.92 755.25 299.52 701.26"/><polygon class="cls-37" points="393.92 755.25 393.95 765.21 608.44 643.34 608.41 633.38 393.92 755.25"/><polygon class="cls-38" points="299.52 701.26 393.92 755.25 608.41 633.38 514.01 579.39 299.52 701.26"/></g><path class="cls-39" d="M327,694c5.48,3.14,5.45,8.22-.06,11.35l56.61,32.38c5.51-3.13,14.42-3.13,19.91,0L581,637.39c-5.86-3.34-5.9-8.34-.59-11.48L523.8,593.53c-5.51,3.14-14.43,3.14-19.91,0Z"/><path class="cls-38" d="M428.37,651.18c-14.19,8.06-14.26,21.13-.17,29.19s37,8.06,51.2,0,14.27-21.13.17-29.19S442.55,643.12,428.37,651.18Z"/><g class="cls-2"><polygon class="cls-37" points="299.52 690.03 299.55 699.99 393.95 753.98 393.92 744.02 299.52 690.03"/><polygon class="cls-37" points="393.92 744.02 393.95 753.98 608.44 632.11 608.41 622.15 393.92 744.02"/><polygon class="cls-38" points="299.52 690.03 393.92 744.02 608.41 622.15 514.01 568.16 299.52 690.03"/></g><path class="cls-39" d="M327,682.81c5.48,3.14,5.45,8.22-.06,11.35l56.61,32.38c5.51-3.13,14.42-3.13,19.91,0L581,626.16c-5.86-3.34-5.9-8.34-.59-11.48L523.8,582.3c-5.51,3.13-14.43,3.13-19.91,0Z"/><path class="cls-38" d="M428.37,640c-14.19,8.06-14.26,21.13-.17,29.19s37,8.06,51.2,0,14.27-21.13.17-29.19S442.55,631.89,428.37,640Z"/><g class="cls-2"><polygon class="cls-37" points="299.52 678.8 299.55 688.76 393.95 742.75 393.92 732.79 299.52 678.8"/><polygon class="cls-37" points="393.92 732.79 393.95 742.75 608.44 620.88 608.41 610.92 393.92 732.79"/><polygon class="cls-38" points="299.52 678.8 393.92 732.79 608.41 610.92 514.01 556.93 299.52 678.8"/></g><path class="cls-39" d="M327,671.58c5.48,3.14,5.45,8.22-.06,11.35l56.61,32.38c5.51-3.14,14.42-3.14,19.91,0L581,614.92c-5.86-3.33-5.9-8.33-.59-11.47L523.8,571.07c-5.51,3.13-14.43,3.13-19.91,0Z"/><path class="cls-38" d="M428.37,628.72c-14.19,8.06-14.26,21.13-.17,29.19s37,8.06,51.2,0,14.27-21.13.17-29.19S442.55,620.66,428.37,628.72Z"/><g class="cls-2"><polygon class="cls-37" points="299.52 678.8 299.55 688.76 393.95 742.75 393.92 732.79 299.52 678.8"/><polygon class="cls-37" points="393.92 732.79 393.95 742.75 608.44 620.88 608.41 610.92 393.92 732.79"/><polygon class="cls-38" points="299.52 678.8 393.92 732.78 464 692.97 476.37 685.94 519.07 661.68 531.41 654.66 608.41 610.92 514.01 556.93 436.71 600.85 424.34 607.88 381.66 632.12 369.29 639.16 299.52 678.8"/></g><path class="cls-39" d="M327,671.58c5.48,3.14,5.45,8.22-.06,11.35l56.61,32.38c5.51-3.14,14.42-3.14,19.91,0L581,614.92c-5.86-3.33-5.9-8.33-.59-11.47L523.8,571.07c-5.51,3.13-14.43,3.13-19.91,0Z"/><path class="cls-38" d="M428.37,628.72c-14.19,8.06-14.26,21.13-.17,29.19s37,8.06,51.2,0,14.27-21.13.17-29.19S442.55,620.66,428.37,628.72Z"/><polygon class="cls-40" points="476.78 763.28 519.46 739.01 519.46 661.9 476.78 686.17 476.78 763.28"/><polygon class="cls-41" points="464.41 770.29 476.78 763.28 476.78 686.17 464.41 693.2 464.41 770.29"/><polygon class="cls-41" points="519.46 739.01 531.83 731.98 531.83 654.89 519.46 661.9 519.46 739.01"/><polygon class="cls-42" points="381.66 632.12 476.37 685.94 476.77 686.17 519.46 661.91 519.07 661.68 424.34 607.88 381.66 632.12"/><polygon class="cls-43" points="369.29 639.16 464 692.97 464.41 693.2 476.77 686.17 476.37 685.94 381.66 632.12 369.29 639.16"/><polygon class="cls-43" points="424.34 607.88 519.07 661.68 519.46 661.91 531.82 654.89 531.41 654.66 436.71 600.85 424.34 607.88"/><path class="cls-44" d="M194.32,802.51c-11.11,7.91-16.69,17.56-16.74,27.22l0-13.22c0-9.66,5.63-19.31,16.74-27.21Q194.33,795.9,194.32,802.51Z"/><path class="cls-44" d="M199.42,799.24q-2.71,1.57-5.1,3.27,0-6.6,0-13.21c1.58-1.13,3.28-2.23,5.1-3.28,29.24-17,76.82-17,106.26,0,14.84,8.57,22.24,19.82,22.18,31.05l0,13.22c.06-11.23-7.34-22.49-22.18-31C276.24,782.24,228.67,782.24,199.42,799.24Z"/><ellipse class="cls-45" cx="253.04" cy="820.49" rx="75.01" ry="42.85"/><path class="cls-46" d="M327.9,817l0,13.22c0,11.06-7.31,22.11-21.84,30.56-29.24,17-76.82,17-106.26,0-14.81-8.56-22.21-19.78-22.18-31l0-13.22c0,11.21,7.37,22.44,22.18,31,29.44,17,77,17,106.26,0C320.59,839.12,327.86,828.07,327.9,817Z"/><path class="cls-44" d="M340.19,817l0,13.22c0,12.88-8.5,25.74-25.41,35.56-34,19.78-89.4,19.78-123.65,0-17.24-10-25.85-23-25.81-36.06l0-13.22c0,13.05,8.58,26.11,25.81,36.07,34.26,19.77,89.62,19.77,123.65,0C331.69,842.78,340.16,829.92,340.19,817Z"/><path class="cls-46" d="M314.38,781c34.26,19.78,34.44,51.85.4,71.62s-89.39,19.78-123.65,0-34.43-51.85-.4-71.63S280.13,761.2,314.38,781ZM199.8,847.57c29.44,17,77,17,106.26,0S335.15,803,305.72,786s-77-17-106.26,0-29.1,44.55.34,61.55"/><g class="cls-2"><polygon class="cls-44" points="297.84 796.7 297.82 801.99 289.66 806.73 289.68 801.45 297.84 796.7"/><path class="cls-44" d="M275.51,808.9v5.28c0-1.92-1.69-3.93-4.91-5.79-5.34-3.08-10.75-3.64-13.92-1.79a2.62,2.62,0,0,0-1.61,2.2v-5.29a2.64,2.64,0,0,1,1.62-2.2c3.17-1.84,8.58-1.29,13.92,1.79C273.82,805,275.52,807,275.51,808.9Z"/><path class="cls-44" d="M230.53,822.52v-5.29c0-1.51,1-2.89,3-4l0,5.28C231.54,819.63,230.53,821,230.53,822.52Z"/><polygon class="cls-44" points="287.49 821.93 287.47 827.22 272.24 818.43 272.25 813.14 287.49 821.93"/><path class="cls-44" d="M295,811.54l0,5.29c0,3.86-2.51,7.48-7.52,10.39l0-5.29C292.5,819,295,815.41,295,811.54Z"/><path class="cls-44" d="M252.63,823.57l0,5.29c0-2-2.89-4.44-6.42-7.12-5.78-4.4-14-10.1-13.95-16l0-5.29c0,5.88,8.17,11.59,13.94,16C249.73,819.14,252.63,821.55,252.63,823.57Z"/><path class="cls-44" d="M210.23,819.65l0-5.29c0,3.68,2.2,7.6,6.6,11.4l0,5.28C212.43,827.25,210.22,823.33,210.23,819.65Z"/><polygon class="cls-44" points="223.21 840.07 223.19 845.36 207.64 836.38 207.66 831.1 223.21 840.07"/><polygon class="cls-44" points="232.32 834.78 232.3 840.07 223.19 845.36 223.21 840.07 232.32 834.78"/><path class="cls-44" d="M275.18,826.76v5.29c0,2.78-1.8,5.58-6.46,8.29-9.27,5.39-22.94,5.11-36.41-.27l0-5.29c13.46,5.38,27.13,5.66,36.4.28C273.38,832.35,275.18,829.54,275.18,826.76Z"/><path class="cls-46" d="M297.84,796.7l-8.16,4.75c7.75,7.32,7.07,15.1-2.19,20.48l-15.23-8.79c5-2.9,4.09-6.72-1.65-10-5.34-3.08-10.75-3.63-13.92-1.79-4.28,2.49.67,6.17,6.34,10.54,8.3,6.45,19.4,15.24,5.69,23.21-9.27,5.38-22.94,5.1-36.4-.28l-9.11,5.29-15.55-9,9.19-5.34c-9-7.79-8.84-16.12.83-21.74l15.87,9.17c-4.76,2.76-3.94,6.81,2.92,10.77,5.42,3.13,10.91,4,14.4,2,4.12-2.39.36-5.66-4.67-9.49-8.46-6.44-22.1-15.69-7.53-24.17,9.43-5.48,23-5.38,35.93-.09l7.69-4.46Z"/></g><path class="cls-44" d="M194.32,786.33c-11.11,7.91-16.69,17.55-16.74,27.22l0-13.22c0-9.66,5.63-19.31,16.74-27.22Q194.33,779.72,194.32,786.33Z"/><path class="cls-44" d="M199.42,783.05q-2.71,1.59-5.1,3.28,0-6.62,0-13.22,2.37-1.7,5.1-3.27c29.24-17,76.82-17,106.26,0,14.84,8.57,22.24,19.83,22.18,31.06l0,13.22c.06-11.23-7.34-22.49-22.18-31.06C276.24,766.06,228.67,766.06,199.42,783.05Z"/><ellipse class="cls-45" cx="253.04" cy="804.31" rx="75.01" ry="42.85"/><path class="cls-46" d="M327.9,800.82l0,13.22c0,11.07-7.31,22.12-21.84,30.56-29.24,17-76.82,17-106.26,0-14.81-8.55-22.21-19.78-22.18-31l0-13.21c0,11.21,7.37,22.43,22.18,31,29.44,17,77,17,106.26,0C320.59,822.94,327.86,811.89,327.9,800.82Z"/><path class="cls-44" d="M340.19,800.86l0,13.22c0,12.87-8.5,25.73-25.41,35.56-34,19.78-89.4,19.78-123.65,0-17.24-9.95-25.85-23-25.81-36.06l0-13.22c0,13,8.58,26.11,25.81,36.06,34.26,19.78,89.62,19.78,123.65,0C331.69,826.59,340.16,813.74,340.19,800.86Z"/><path class="cls-46" d="M314.38,764.8c34.26,19.78,34.44,51.84.4,71.62s-89.39,19.78-123.65,0-34.43-51.84-.4-71.62S280.13,745,314.38,764.8ZM199.8,831.39c29.44,17,77,17,106.26,0s29.09-44.55-.34-61.55-77-17-106.26,0-29.1,44.55.34,61.55"/><g class="cls-2"><polygon class="cls-44" points="297.84 780.52 297.82 785.81 289.66 790.55 289.68 785.26 297.84 780.52"/><path class="cls-44" d="M275.51,792.71V798c0-1.92-1.69-3.94-4.91-5.79-5.34-3.09-10.75-3.64-13.92-1.8-1.12.66-1.61,1.39-1.61,2.21v-5.29a2.64,2.64,0,0,1,1.62-2.2c3.17-1.85,8.58-1.29,13.92,1.79C273.82,788.78,275.52,790.79,275.51,792.71Z"/><path class="cls-44" d="M230.53,806.33v-5.28c0-1.51,1-2.89,3-4l0,5.29C231.54,803.45,230.53,804.83,230.53,806.33Z"/><polygon class="cls-44" points="287.49 805.75 287.47 811.04 272.24 802.25 272.25 796.96 287.49 805.75"/><path class="cls-44" d="M295,795.36l0,5.29c0,3.86-2.51,7.47-7.52,10.39l0-5.29C292.5,802.84,295,799.22,295,795.36Z"/><path class="cls-44" d="M252.63,807.39l0,5.29c0-2-2.89-4.44-6.42-7.12-5.78-4.4-14-10.11-13.95-16l0-5.29c0,5.88,8.17,11.58,13.94,16C249.73,803,252.63,805.36,252.63,807.39Z"/><path class="cls-44" d="M210.23,803.47l0-5.29c0,3.68,2.2,7.6,6.6,11.39l0,5.29C212.43,811.07,210.22,807.14,210.23,803.47Z"/><polygon class="cls-44" points="223.21 823.89 223.19 829.18 207.64 820.2 207.66 814.91 223.21 823.89"/><polygon class="cls-44" points="232.32 818.6 232.3 823.88 223.19 829.18 223.21 823.89 232.32 818.6"/><path class="cls-44" d="M275.18,810.58v5.29c0,2.77-1.8,5.58-6.46,8.29-9.27,5.39-22.94,5.11-36.41-.28l0-5.28c13.46,5.38,27.13,5.66,36.4.27C273.38,816.16,275.18,813.36,275.18,810.58Z"/><path class="cls-46" d="M297.84,780.52l-8.16,4.74c7.75,7.32,7.07,15.1-2.19,20.49L272.26,797c5-2.9,4.09-6.73-1.65-10-5.34-3.08-10.75-3.64-13.92-1.79-4.28,2.48.67,6.16,6.34,10.54,8.3,6.44,19.4,15.24,5.69,23.2-9.27,5.39-22.94,5.11-36.4-.27l-9.11,5.29-15.55-9,9.19-5.34c-9-7.78-8.84-16.11.83-21.73L233.55,797c-4.76,2.77-3.94,6.82,2.92,10.78,5.42,3.13,10.91,4,14.4,2,4.12-2.4.36-5.67-4.67-9.49-8.46-6.44-22.1-15.7-7.53-24.17,9.43-5.48,23-5.39,35.93-.09l7.69-4.47Z"/></g><path class="cls-44" d="M194.32,770.15c-11.11,7.9-16.69,17.55-16.74,27.22l0-13.22c0-9.67,5.63-19.31,16.74-27.22Q194.33,763.53,194.32,770.15Z"/><path class="cls-44" d="M199.42,766.87c-1.81,1-3.51,2.15-5.1,3.28q0-6.61,0-13.22,2.37-1.7,5.1-3.28c29.24-17,76.82-17,106.26,0,14.84,8.57,22.24,19.82,22.18,31.06l0,13.21c.06-11.23-7.34-22.48-22.18-31C276.24,749.87,228.67,749.87,199.42,766.87Z"/><ellipse class="cls-45" cx="253.04" cy="788.13" rx="75.01" ry="42.85"/><path class="cls-46" d="M327.9,784.64l0,13.22c0,11.07-7.31,22.11-21.84,30.56-29.24,17-76.82,17-106.26,0-14.81-8.55-22.21-19.78-22.18-31l0-13.22c0,11.21,7.37,22.44,22.18,31,29.44,17,77,17,106.26,0C320.59,806.76,327.86,795.71,327.9,784.64Z"/><path class="cls-44" d="M340.19,784.68l0,13.21c0,12.88-8.5,25.74-25.41,35.56-34,19.78-89.4,19.78-123.65,0-17.24-10-25.85-23-25.81-36.07l0-13.21c0,13,8.58,26.11,25.81,36.06,34.26,19.78,89.62,19.78,123.65,0C331.69,810.41,340.16,797.55,340.19,784.68Z"/><path class="cls-46" d="M314.38,748.62c34.26,19.77,34.44,51.84.4,71.62s-89.39,19.78-123.65,0-34.43-51.85-.4-71.63S280.13,728.84,314.38,748.62ZM199.8,815.2c29.44,17,77,17,106.26,0s29.09-44.55-.34-61.55-77-17-106.26,0-29.1,44.56.34,61.55"/><g class="cls-2"><polygon class="cls-44" points="297.84 764.34 297.82 769.62 289.66 774.37 289.68 769.08 297.84 764.34"/><path class="cls-44" d="M275.51,776.53v5.29c0-1.93-1.69-3.94-4.91-5.8-5.34-3.08-10.75-3.63-13.92-1.79a2.62,2.62,0,0,0-1.61,2.2v-5.28a2.65,2.65,0,0,1,1.62-2.21c3.17-1.84,8.58-1.29,13.92,1.8C273.82,772.59,275.52,774.61,275.51,776.53Z"/><path class="cls-44" d="M230.53,790.15v-5.29c0-1.5,1-2.88,3-4l0,5.29C231.54,787.26,230.53,788.64,230.53,790.15Z"/><polygon class="cls-44" points="287.49 789.57 287.47 794.86 272.24 786.06 272.25 780.77 287.49 789.57"/><path class="cls-44" d="M295,779.18l0,5.28c0,3.87-2.51,7.48-7.52,10.39l0-5.28C292.5,786.65,295,783,295,779.18Z"/><path class="cls-44" d="M252.63,791.21l0,5.28c0-2-2.89-4.43-6.42-7.11-5.78-4.4-14-10.11-13.95-16l0-5.28c0,5.87,8.17,11.58,13.94,16C249.73,786.77,252.63,789.18,252.63,791.21Z"/><path class="cls-44" d="M210.23,787.28l0-5.28c0,3.67,2.2,7.6,6.6,11.39l0,5.29C212.43,794.88,210.22,791,210.23,787.28Z"/><polygon class="cls-44" points="223.21 807.71 223.19 812.99 207.64 804.02 207.66 798.73 223.21 807.71"/><polygon class="cls-44" points="232.32 802.41 232.3 807.7 223.19 812.99 223.21 807.71 232.32 802.41"/><path class="cls-44" d="M275.18,794.4v5.28c0,2.78-1.8,5.59-6.46,8.3-9.27,5.38-22.94,5.11-36.41-.28l0-5.29c13.46,5.39,27.13,5.67,36.4.28C273.38,800,275.18,797.17,275.18,794.4Z"/><path class="cls-46" d="M297.84,764.34l-8.16,4.74c7.75,7.32,7.07,15.1-2.19,20.49l-15.23-8.8c5-2.9,4.09-6.72-1.65-10-5.34-3.09-10.75-3.64-13.92-1.8-4.28,2.49.67,6.17,6.34,10.54,8.3,6.45,19.4,15.24,5.69,23.21-9.27,5.39-22.94,5.11-36.4-.28l-9.11,5.3-15.55-9,9.19-5.34c-9-7.78-8.84-16.11.83-21.73l15.87,9.16c-4.76,2.76-3.94,6.81,2.92,10.77,5.42,3.13,10.91,4,14.4,2,4.12-2.39.36-5.66-4.67-9.48-8.46-6.45-22.1-15.7-7.53-24.17,9.43-5.48,23-5.39,35.93-.09l7.69-4.47Z"/></g><path class="cls-44" d="M194.32,754c-11.11,7.91-16.69,17.56-16.74,27.22l0-13.22c0-9.66,5.63-19.31,16.74-27.21Q194.33,747.35,194.32,754Z"/><path class="cls-44" d="M199.42,750.69q-2.71,1.57-5.1,3.27,0-6.6,0-13.21c1.58-1.13,3.28-2.23,5.1-3.28,29.24-17,76.82-17,106.26,0,14.84,8.57,22.24,19.82,22.18,31l0,13.22c.06-11.23-7.34-22.49-22.18-31C276.24,733.69,228.67,733.69,199.42,750.69Z"/><ellipse class="cls-45" cx="253.04" cy="771.94" rx="75.01" ry="42.85"/><path class="cls-46" d="M327.9,768.46l0,13.22c0,11.06-7.31,22.11-21.84,30.56-29.24,17-76.82,17-106.26,0-14.81-8.56-22.21-19.78-22.18-31l0-13.22c0,11.21,7.37,22.44,22.18,31,29.44,17,77,17,106.26,0C320.59,790.57,327.86,779.52,327.9,768.46Z"/><path class="cls-44" d="M340.19,768.49l0,13.22c0,12.88-8.5,25.74-25.41,35.56-34,19.78-89.4,19.78-123.65,0-17.24-9.95-25.85-23-25.81-36.06l0-13.22c0,13,8.58,26.11,25.81,36.07,34.26,19.77,89.62,19.77,123.65,0C331.69,794.23,340.16,781.37,340.19,768.49Z"/><path class="cls-46" d="M314.38,732.43c34.26,19.78,34.44,51.85.4,71.62s-89.39,19.78-123.65,0-34.43-51.85-.4-71.63S280.13,712.65,314.38,732.43ZM199.8,799c29.44,17,77,17,106.26,0s29.09-44.56-.34-61.55-77-17-106.26,0S170.36,782,199.8,799"/><g class="cls-2"><polygon class="cls-44" points="297.84 748.15 297.82 753.44 289.66 758.18 289.68 752.9 297.84 748.15"/><path class="cls-44" d="M275.51,760.35v5.28c0-1.92-1.69-3.93-4.91-5.79-5.34-3.08-10.75-3.64-13.92-1.79a2.62,2.62,0,0,0-1.61,2.2V755a2.64,2.64,0,0,1,1.62-2.2c3.17-1.84,8.58-1.29,13.92,1.79C273.82,756.41,275.52,758.42,275.51,760.35Z"/><path class="cls-44" d="M230.53,774v-5.29c0-1.51,1-2.89,3-4l0,5.28C231.54,771.08,230.53,772.46,230.53,774Z"/><polygon class="cls-44" points="287.49 773.38 287.47 778.67 272.24 769.88 272.25 764.59 287.49 773.38"/><path class="cls-44" d="M295,763l0,5.29c0,3.86-2.51,7.48-7.52,10.39l0-5.29C292.5,770.47,295,766.86,295,763Z"/><path class="cls-44" d="M252.63,775l0,5.29c0-2-2.89-4.44-6.42-7.12-5.78-4.4-14-10.1-13.95-16l0-5.29c0,5.88,8.17,11.59,13.94,16C249.73,770.59,252.63,773,252.63,775Z"/><path class="cls-44" d="M210.23,771.1l0-5.29c0,3.68,2.2,7.6,6.6,11.4l0,5.28C212.43,778.7,210.22,774.78,210.23,771.1Z"/><polygon class="cls-44" points="223.21 791.52 223.19 796.81 207.64 787.83 207.66 782.55 223.21 791.52"/><polygon class="cls-44" points="232.32 786.23 232.3 791.52 223.19 796.81 223.21 791.52 232.32 786.23"/><path class="cls-44" d="M275.18,778.21v5.29c0,2.78-1.8,5.58-6.46,8.29-9.27,5.39-22.94,5.11-36.41-.27l0-5.29c13.46,5.38,27.13,5.66,36.4.28C273.38,783.8,275.18,781,275.18,778.21Z"/><path class="cls-46" d="M297.84,748.15l-8.16,4.75c7.75,7.32,7.07,15.1-2.19,20.48l-15.23-8.79c5-2.9,4.09-6.72-1.65-10-5.34-3.08-10.75-3.63-13.92-1.79-4.28,2.49.67,6.17,6.34,10.54,8.3,6.45,19.4,15.24,5.69,23.21-9.27,5.38-22.94,5.1-36.4-.28l-9.11,5.29-15.55-9,9.19-5.34c-9-7.79-8.84-16.12.83-21.74l15.87,9.17c-4.76,2.76-3.94,6.81,2.92,10.77,5.42,3.13,10.91,4,14.4,2,4.12-2.39.36-5.66-4.67-9.49-8.46-6.44-22.1-15.69-7.53-24.17,9.43-5.48,23-5.38,35.93-.09l7.69-4.46Z"/></g><path class="cls-44" d="M194.32,737.78c-11.11,7.91-16.69,17.55-16.74,27.22l0-13.22c0-9.66,5.63-19.31,16.74-27.22Q194.33,731.18,194.32,737.78Z"/><path class="cls-44" d="M199.42,734.5q-2.71,1.59-5.1,3.28,0-6.62,0-13.22,2.37-1.69,5.1-3.27c29.24-17,76.82-17,106.26,0,14.84,8.57,22.24,19.83,22.18,31.06l0,13.22c.06-11.23-7.34-22.49-22.18-31.06C276.24,717.51,228.67,717.51,199.42,734.5Z"/><ellipse class="cls-45" cx="253.04" cy="755.76" rx="75.01" ry="42.85"/><path class="cls-46" d="M327.9,752.27l0,13.22c0,11.07-7.31,22.12-21.84,30.56-29.24,17-76.82,17-106.26,0-14.81-8.55-22.21-19.78-22.18-31l0-13.21c0,11.21,7.37,22.43,22.18,31,29.44,17,77,17,106.26,0C320.59,774.39,327.86,763.34,327.9,752.27Z"/><path class="cls-44" d="M340.19,752.31l0,13.22c0,12.87-8.5,25.73-25.41,35.56-34,19.78-89.4,19.78-123.65,0-17.24-10-25.85-23-25.81-36.06l0-13.22c0,13.05,8.58,26.11,25.81,36.06,34.26,19.78,89.62,19.78,123.65,0C331.69,778,340.16,765.19,340.19,752.31Z"/><path class="cls-46" d="M314.38,716.25c34.26,19.78,34.44,51.84.4,71.62s-89.39,19.78-123.65,0-34.43-51.84-.4-71.62S280.13,696.47,314.38,716.25ZM199.8,782.84c29.44,17,77,17,106.26,0s29.09-44.55-.34-61.55-77-17-106.26,0-29.1,44.55.34,61.55"/><g class="cls-2"><polygon class="cls-44" points="297.84 731.97 297.82 737.26 289.66 742 289.68 736.71 297.84 731.97"/><path class="cls-44" d="M275.51,744.16v5.29c0-1.92-1.69-3.94-4.91-5.79-5.34-3.09-10.75-3.64-13.92-1.8-1.12.66-1.61,1.39-1.61,2.21v-5.29a2.64,2.64,0,0,1,1.62-2.2c3.17-1.85,8.58-1.29,13.92,1.79C273.82,740.23,275.52,742.24,275.51,744.16Z"/><path class="cls-44" d="M230.53,757.78V752.5c0-1.51,1-2.89,3-4l0,5.29C231.54,754.9,230.53,756.28,230.53,757.78Z"/><polygon class="cls-44" points="287.49 757.2 287.47 762.49 272.24 753.7 272.25 748.41 287.49 757.2"/><path class="cls-44" d="M295,746.81l0,5.29c0,3.86-2.51,7.47-7.52,10.39l0-5.29C292.5,754.29,295,750.67,295,746.81Z"/><path class="cls-44" d="M252.63,758.84l0,5.29c0-2-2.89-4.44-6.42-7.12-5.78-4.4-14-10.11-13.95-16l0-5.29c0,5.88,8.17,11.58,13.94,16C249.73,754.4,252.63,756.81,252.63,758.84Z"/><path class="cls-44" d="M210.23,754.92l0-5.29c0,3.68,2.2,7.6,6.6,11.39l0,5.29C212.43,762.52,210.22,758.59,210.23,754.92Z"/><polygon class="cls-44" points="223.21 775.34 223.19 780.63 207.64 771.65 207.66 766.36 223.21 775.34"/><polygon class="cls-44" points="232.32 770.05 232.3 775.33 223.19 780.63 223.21 775.34 232.32 770.05"/><path class="cls-44" d="M275.18,762v5.29c0,2.77-1.8,5.58-6.46,8.29-9.27,5.39-22.94,5.11-36.41-.28l0-5.28c13.46,5.38,27.13,5.66,36.4.27C273.38,767.61,275.18,764.81,275.18,762Z"/><path class="cls-46" d="M297.84,732l-8.16,4.74c7.75,7.32,7.07,15.1-2.19,20.49l-15.23-8.79c5-2.9,4.09-6.73-1.65-10-5.34-3.08-10.75-3.64-13.92-1.79-4.28,2.48.67,6.16,6.34,10.54,8.3,6.44,19.4,15.24,5.69,23.2-9.27,5.39-22.94,5.11-36.4-.27l-9.11,5.29-15.55-9,9.19-5.34c-9-7.78-8.84-16.11.83-21.73l15.87,9.16c-4.76,2.77-3.94,6.82,2.92,10.78,5.42,3.13,10.91,4,14.4,2,4.12-2.4.36-5.67-4.67-9.49-8.46-6.44-22.1-15.7-7.53-24.17,9.43-5.48,23-5.39,35.93-.09l7.69-4.47Z"/></g><path class="cls-44" d="M246,886.68c-11.11,7.91-16.68,17.56-16.74,27.22l0-13.22c0-9.66,5.63-19.31,16.74-27.22Q246,880.08,246,886.68Z"/><path class="cls-44" d="M251.1,883.4q-2.72,1.59-5.1,3.28,0-6.61,0-13.22,2.37-1.69,5.1-3.27c29.24-17,76.82-17,106.26,0,14.84,8.57,22.24,19.82,22.18,31l0,13.22c.06-11.23-7.34-22.49-22.18-31.06C327.92,866.41,280.35,866.41,251.1,883.4Z"/><ellipse class="cls-45" cx="304.72" cy="904.66" rx="75.01" ry="42.85"/><path class="cls-46" d="M379.58,901.18l0,13.21c0,11.07-7.31,22.12-21.83,30.56-29.25,17-76.83,17-106.27,0-14.81-8.55-22.21-19.77-22.18-31l0-13.22c0,11.21,7.37,22.43,22.18,31,29.44,17,77,17,106.26,0C372.27,923.29,379.55,912.24,379.58,901.18Z"/><path class="cls-44" d="M391.87,901.21l0,13.22c0,12.88-8.5,25.73-25.41,35.56-34,19.78-89.4,19.78-123.65,0-17.24-10-25.85-23-25.81-36.06l0-13.22c0,13,8.58,26.11,25.81,36.06,34.26,19.78,89.62,19.78,123.66,0C383.37,927,391.84,914.09,391.87,901.21Z"/><path class="cls-46" d="M366.06,865.15c34.26,19.78,34.44,51.84.41,71.62s-89.4,19.78-123.66,0-34.43-51.84-.4-71.62S331.81,845.37,366.06,865.15ZM251.48,931.74c29.44,17,77,17,106.26,0s29.09-44.56-.34-61.55-77-17-106.26,0-29.1,44.55.34,61.55"/><g class="cls-2"><polygon class="cls-44" points="349.52 880.87 349.5 886.16 341.34 890.9 341.36 885.61 349.52 880.87"/><path class="cls-44" d="M327.19,893.06v5.29c0-1.92-1.69-3.94-4.9-5.79-5.35-3.09-10.75-3.64-13.92-1.8-1.13.66-1.62,1.4-1.62,2.21v-5.29a2.64,2.64,0,0,1,1.62-2.2c3.17-1.85,8.58-1.29,13.92,1.79C325.5,889.13,327.2,891.14,327.19,893.06Z"/><path class="cls-44" d="M282.21,906.68V901.4c0-1.51,1-2.89,3-4l0,5.29C283.22,903.8,282.21,905.18,282.21,906.68Z"/><polygon class="cls-44" points="339.17 906.1 339.15 911.39 323.92 902.6 323.94 897.31 339.17 906.1"/><path class="cls-44" d="M346.69,895.71l0,5.29c0,3.86-2.5,7.48-7.52,10.39l0-5.29C344.18,903.19,346.68,899.57,346.69,895.71Z"/><path class="cls-44" d="M304.31,907.74l0,5.29c0-2-2.89-4.44-6.42-7.12-5.78-4.4-14-10.11-13.95-16l0-5.29c0,5.88,8.17,11.58,13.95,16C301.41,903.3,304.31,905.71,304.31,907.74Z"/><path class="cls-44" d="M261.91,903.82l0-5.29c0,3.68,2.2,7.6,6.6,11.39l0,5.29C264.11,911.42,261.9,907.49,261.91,903.82Z"/><polygon class="cls-44" points="274.89 924.24 274.87 929.53 259.32 920.55 259.34 915.26 274.89 924.24"/><polygon class="cls-44" points="284 918.95 283.98 924.23 274.87 929.53 274.89 924.24 284 918.95"/><path class="cls-44" d="M326.87,910.93l0,5.29c0,2.77-1.8,5.58-6.46,8.29-9.27,5.39-22.94,5.11-36.41-.28l0-5.28c13.46,5.38,27.13,5.66,36.4.27C325.07,916.51,326.86,913.71,326.87,910.93Z"/><path class="cls-46" d="M349.52,880.87l-8.16,4.74c7.75,7.32,7.08,15.11-2.19,20.49l-15.23-8.79c5-2.9,4.09-6.72-1.65-10-5.34-3.08-10.75-3.64-13.92-1.79-4.28,2.48.67,6.16,6.34,10.54,8.3,6.44,19.4,15.24,5.69,23.2-9.27,5.39-22.94,5.11-36.4-.27l-9.11,5.29-15.55-9,9.19-5.34c-9-7.78-8.84-16.11.83-21.73l15.87,9.16c-4.76,2.77-3.94,6.82,2.92,10.78,5.42,3.13,10.91,4,14.4,2,4.12-2.4.36-5.67-4.66-9.49-8.47-6.44-22.11-15.7-7.54-24.17,9.43-5.48,22.95-5.39,35.93-.09l7.69-4.47Z"/></g><path class="cls-44" d="M296.19,859.77c-11.11,7.9-16.68,17.55-16.74,27.22l0-13.22c.05-9.67,5.63-19.31,16.74-27.22Q296.22,853.17,296.19,859.77Z"/><path class="cls-44" d="M301.29,856.49c-1.81,1-3.51,2.15-5.1,3.28q0-6.62,0-13.22,2.37-1.69,5.1-3.28c29.24-17,76.82-17,106.26,0,14.84,8.57,22.24,19.83,22.18,31.06l0,13.21c.06-11.23-7.34-22.48-22.18-31C378.11,839.49,330.54,839.49,301.29,856.49Z"/><ellipse class="cls-45" cx="354.91" cy="877.75" rx="75.01" ry="42.85"/><path class="cls-46" d="M429.77,874.26l0,13.22c0,11.07-7.3,22.12-21.83,30.56-29.25,17-76.83,17-106.27,0-14.81-8.55-22.21-19.78-22.18-31l0-13.22c0,11.21,7.37,22.44,22.18,31,29.44,17,77,17,106.26,0C422.46,896.38,429.74,885.33,429.77,874.26Z"/><path class="cls-44" d="M442.06,874.3l0,13.21c0,12.88-8.5,25.74-25.41,35.57-34,19.77-89.4,19.78-123.65,0-17.24-10-25.85-23-25.81-36.06l0-13.22c0,13,8.58,26.11,25.82,36.06,34.25,19.78,89.61,19.78,123.65,0C433.56,900,442,887.17,442.06,874.3Z"/><path class="cls-46" d="M416.25,838.24c34.26,19.77,34.44,51.84.41,71.62s-89.4,19.78-123.65,0-34.44-51.85-.41-71.62S382,818.46,416.25,838.24ZM301.67,904.82c29.44,17,77,17,106.26,0s29.1-44.55-.34-61.55-77-17-106.26,0-29.1,44.56.34,61.55"/><g class="cls-2"><polygon class="cls-44" points="399.71 853.96 399.69 859.25 391.53 863.99 391.55 858.7 399.71 853.96"/><path class="cls-44" d="M377.39,866.15l0,5.29c0-1.93-1.69-3.94-4.9-5.79-5.35-3.09-10.75-3.64-13.92-1.8a2.62,2.62,0,0,0-1.62,2.2l0-5.28a2.63,2.63,0,0,1,1.61-2.21c3.17-1.84,8.58-1.29,13.92,1.8C375.69,862.21,377.39,864.23,377.39,866.15Z"/><path class="cls-44" d="M332.4,879.77v-5.29c0-1.5,1-2.88,3-4l0,5.29C333.42,876.88,332.4,878.26,332.4,879.77Z"/><polygon class="cls-44" points="389.36 879.19 389.34 884.48 374.11 875.68 374.13 870.39 389.36 879.19"/><path class="cls-44" d="M396.88,868.8v5.29c0,3.86-2.51,7.47-7.53,10.39l0-5.29C394.37,876.28,396.87,872.66,396.88,868.8Z"/><path class="cls-44" d="M354.5,880.83l0,5.28c0-2-2.89-4.43-6.42-7.11-5.77-4.4-14-10.11-13.95-16l0-5.29c0,5.87,8.17,11.58,13.95,16C351.6,876.39,354.5,878.8,354.5,880.83Z"/><path class="cls-44" d="M312.1,876.9l0-5.28c0,3.67,2.2,7.6,6.6,11.39l0,5.29C314.3,884.5,312.09,880.58,312.1,876.9Z"/><polygon class="cls-44" points="325.08 897.33 325.06 902.62 309.51 893.64 309.53 888.35 325.08 897.33"/><polygon class="cls-44" points="334.19 892.03 334.17 897.32 325.06 902.62 325.08 897.33 334.19 892.03"/><path class="cls-44" d="M377.06,884l0,5.28c0,2.78-1.8,5.59-6.46,8.3-9.27,5.38-22.94,5.11-36.41-.28l0-5.29c13.46,5.39,27.13,5.67,36.4.28C375.26,889.6,377.05,886.79,377.06,884Z"/><path class="cls-46" d="M399.71,854l-8.16,4.74c7.75,7.32,7.08,15.1-2.19,20.49l-15.23-8.79c5-2.91,4.09-6.73-1.65-10-5.34-3.09-10.75-3.64-13.92-1.8-4.28,2.49.67,6.17,6.34,10.55,8.3,6.44,19.4,15.23,5.69,23.2-9.27,5.39-22.94,5.11-36.4-.28l-9.11,5.3-15.55-9,9.19-5.34c-9-7.78-8.84-16.11.83-21.73l15.87,9.16c-4.75,2.76-3.94,6.81,2.92,10.77,5.42,3.13,10.91,4,14.4,2,4.12-2.39.36-5.66-4.66-9.48-8.47-6.45-22.11-15.7-7.53-24.17,9.43-5.48,22.94-5.39,35.92-.09l7.69-4.47Z"/></g><path class="cls-5" d="M1009,921.33h0L870.37,841.28c-3.52-2.11-8.42-1.84-13.84,1.29a28.71,28.71,0,0,0-3,2l-12.87-7.43c11.19-12,16.8-25.39,16.84-38.75l.09-29.3c0,.27,0,.55,0,.83.43-21.46-13.5-43-41.79-59.34-55.5-32-145.52-32-200.66,0-27.47,16-41.17,36.92-41.14,57.9,0-.07,0-.14,0-.21l-.08,29.31c-.06,21.18,13.89,42.4,41.82,58.52,54.26,31.33,141.51,32,196.89,2.06l24.81,14.33a30.27,30.27,0,0,0-.26,3.64c0,6.12,2.12,10.43,5.56,12.49l138.65,80.05h0c3.52,2.11,8.42,1.85,13.84-1.28,10.72-6.18,19.41-21.23,19.41-33.6C1014.58,927.7,1012.46,923.39,1009,921.33ZM851.51,792.78h0c.09-.17.19-.35.27-.52C851.7,792.44,851.6,792.61,851.51,792.78Zm-39.37,31.61c-52.8,30.68-139,30.69-192.16,0-20.29-11.71-32.86-26.23-37.74-41.41,4.88-14.89,17.21-29.1,37-40.61,52.83-30.69,139-30.69,192.2,0,20.28,11.71,32.85,26.22,37.73,41.4C844.29,798.66,832,812.88,812.14,824.39Z"/><ellipse class="cls-37" cx="801.64" cy="760.24" rx="34.73" ry="59.96" transform="translate(39.13 1559.71) rotate(-89.84)"/><path class="cls-37" d="M858.85,793.12l2.07,1.19-.13.08A92.61,92.61,0,0,1,845,801.57l-1.51-1.45a88.27,88.27,0,0,0,15.21-6.93Z"/><path class="cls-37" d="M881.39,774.51a42.32,42.32,0,0,1-8.15,10.62l-2.5-.86A40.92,40.92,0,0,0,878.6,774Z"/><path class="cls-37" d="M806.78,806.75a133.38,133.38,0,0,0,19.06-2l.88,1.61A138.7,138.7,0,0,1,807,808.44Z"/><path class="cls-37" d="M883.58,751.44a28.69,28.69,0,0,1,1.31,11.62L882,763a27.92,27.92,0,0,0-1.26-11.21Z"/><path class="cls-37" d="M768.88,802.76a127,127,0,0,0,18.53,3.33l-.52,1.65a130.44,130.44,0,0,1-19.19-3.44Z"/><path class="cls-37" d="M867,730.37a53.54,53.54,0,0,1,10.5,10l-2.66.7a50.8,50.8,0,0,0-10.12-9.6Z"/><path class="cls-37" d="M744.93,793.19c2.34,1.35,4.79,2.61,7.32,3.75l-1.78,1.33c-2.63-1.19-5.17-2.49-7.59-3.89a72.59,72.59,0,0,1-6.68-4.33l2.29-1A69.53,69.53,0,0,0,744.93,793.19Z"/><path class="cls-37" d="M719.68,769l2.86-.3a34.85,34.85,0,0,0,5.83,10.73l-2.64.69A35.91,35.91,0,0,1,719.68,769Z"/><path class="cls-37" d="M816.28,712.71l-.5,1.67a139,139,0,0,0-19.37-.67l-.19-1.68A144.23,144.23,0,0,1,816.28,712.71Z"/><path class="cls-37" d="M721.92,745.9l2.78.51a29.73,29.73,0,0,0-3.4,11l-2.9-.1A30.61,30.61,0,0,1,721.92,745.9Z"/><path class="cls-37" d="M742.43,726.12l2.06,1.19a62.31,62.31,0,0,0-11.9,8.85l-2.5-.87A64.06,64.06,0,0,1,742.43,726.12Z"/><path class="cls-37" d="M777.35,715.74a114.18,114.18,0,0,0-17.65,4.63l-1.53-1.44a118.89,118.89,0,0,1,18.3-4.8Z"/><path class="cls-37" d="M851,723.5a102.68,102.68,0,0,0-16.64-5.81l1.19-1.54a106.53,106.53,0,0,1,17.24,6Z"/><path class="cls-37" d="M869.84,720.6c37.85,21.86,38,57.41.44,79.27s-99,21.85-136.84,0-38-57.41-.44-79.26S832,698.75,869.84,720.6ZM735.43,798.71c36.75,21.21,96.34,21.21,132.84,0s36.31-55.73-.43-77-96.33-21.21-132.84,0-36.31,55.73.43,77"/><path class="cls-37" d="M850.86,731.63c27.32,15.77,27.46,41.43.32,57.21s-71.45,15.77-98.76,0S725,747.4,752.1,731.63,823.55,715.86,850.86,731.63Zm-96.39,56c26.18,15.12,68.63,15.12,94.64,0s25.87-39.7-.31-54.81-68.62-15.12-94.64,0-25.86,39.7.31,54.81"/><polygon class="cls-4" points="1104.74 865.88 1099.11 869.15 981.12 801.02 986.75 797.75 1104.74 865.88"/><polygon class="cls-4" points="1012.55 937.56 1006.91 940.84 888.91 872.72 894.55 869.44 1012.55 937.56"/><polygon class="cls-4" points="1288.72 779.36 1283.3 782.51 995.78 616.51 1001.2 613.36 1288.72 779.36"/><polygon class="cls-4" points="1272.45 788.81 1267.03 791.96 979.51 625.97 984.94 622.81 1272.45 788.81"/><g class="cls-2"><polygon class="cls-4" points="1038.69 760.64 1033.26 763.79 887.33 679.54 892.75 676.38 1038.69 760.64"/><polygon class="cls-4" points="1256.19 798.27 1250.76 801.42 963.25 635.42 968.67 632.27 1256.19 798.27"/><polygon class="cls-4" points="1239.92 807.72 1234.49 810.87 946.98 644.87 952.4 641.72 1239.92 807.72"/><polygon class="cls-4" points="1212.8 823.48 1207.38 826.63 980.35 695.55 985.77 692.4 1212.8 823.48"/><polygon class="cls-4" points="1196.53 832.93 1191.11 836.08 903.59 670.08 909.02 666.93 1196.53 832.93"/></g><g class="cls-2"><polygon class="cls-47" points="1342.53 774.86 1543.41 658.12 1543.88 538.84 1343 655.58 1342.53 774.86"/><polygon class="cls-48" points="1159.53 436.61 975.42 443.35 975.23 562.79 1342.53 774.86 1343 655.58 1159.53 436.61"/></g><polygon class="cls-47" points="966 562.87 975.14 557.56 1342.58 769.6 1543.17 648.84 1552.31 654.14 1342.96 780.17 1342.77 780.06 1342.58 780.17 966 562.87"/><polygon class="cls-4" points="965.97 577.11 966 562.87 1333.84 775.12 1333.83 774.86 1342.96 780.17 1343 794.4 1342.54 794.13 1342.53 794.4 965.97 577.11"/><polygon class="cls-6" points="1552.31 654.14 1552.35 668.38 1343 794.4 1342.96 780.17 1552.31 654.14"/><g class="cls-2"><polygon class="cls-47" points="1188.42 724.4 1221.02 705.26 1221.58 504.96 1188.98 524.1 1188.42 724.4"/><polygon class="cls-48" points="1125.26 452.09 1061.87 450.71 1061.3 651.01 1188.42 724.4 1188.98 524.1 1125.26 452.09"/></g><polygon class="cls-4" points="1052.17 651.11 1179.47 724.56 1179.47 724.3 1188.6 729.6 1188.64 743.84 1052.13 665.35 1052.17 651.11"/><polygon class="cls-47" points="1052.17 651.11 1061.3 645.8 1188.23 719.03 1221.11 699.31 1230.24 704.62 1188.6 729.6 1188.41 729.49 1188.21 729.6 1052.17 651.11"/><polygon class="cls-6" points="1221.13 724.34 1188.64 743.84 1188.6 729.6 1220.78 710.29 1221.13 724.34"/><polygon class="cls-49" points="1076.07 476.58 1112.94 497.87 1112.83 537.96 1075.95 516.66 1076.07 476.58"/><polygon class="cls-6" points="1074.43 477.53 1077.71 475.62 1077.6 515.71 1074.32 517.62 1074.43 477.53"/><polygon class="cls-47" points="1077.6 515.71 1114.48 537 1111.19 538.91 1074.32 517.62 1077.6 515.71"/><polygon class="cls-6" points="1115.15 496.87 1118.44 494.96 1118.3 543.38 1115.02 545.29 1115.15 496.87"/><polygon class="cls-47" points="1073.9 469.25 1118.44 494.96 1115.15 496.87 1070.62 471.16 1073.9 469.25"/><path class="cls-4" d="M1070.48,519.58,1115,545.29l.13-48.42-44.53-25.71Zm3.84-2,.11-40.09,36.88,21.29-.12,40.09Z"/><polygon class="cls-49" points="1130.84 507.27 1167.72 528.56 1167.61 568.65 1130.73 547.36 1130.84 507.27"/><polygon class="cls-6" points="1129.21 508.22 1132.48 506.31 1132.37 546.4 1129.09 548.3 1129.21 508.22"/><polygon class="cls-47" points="1132.37 546.4 1169.25 567.69 1165.97 569.6 1129.09 548.3 1132.37 546.4"/><polygon class="cls-6" points="1169.93 527.55 1173.21 525.65 1173.08 574.07 1169.79 575.98 1169.93 527.55"/><polygon class="cls-47" points="1128.68 499.94 1173.21 525.65 1169.93 527.55 1125.4 501.85 1128.68 499.94"/><path class="cls-4" d="M1125.26,550.27,1169.79,576l.14-48.43-44.53-25.7Zm3.83-2,.12-40.09,36.87,21.29L1166,569.6Z"/><polygon class="cls-49" points="1075.82 575.9 1112.69 597.19 1112.58 637.28 1075.7 615.99 1075.82 575.9"/><polygon class="cls-6" points="1074.17 576.86 1077.46 574.94 1077.34 615.03 1074.06 616.94 1074.17 576.86"/><polygon class="cls-47" points="1077.34 615.03 1114.23 636.32 1110.94 638.23 1074.06 616.94 1077.34 615.03"/><polygon class="cls-6" points="1114.9 596.19 1118.19 594.28 1118.05 642.71 1114.77 644.61 1114.9 596.19"/><polygon class="cls-47" points="1073.65 568.57 1118.19 594.28 1114.9 596.19 1070.37 570.48 1073.65 568.57"/><path class="cls-4" d="M1070.23,618.9l44.54,25.71.13-48.42-44.53-25.71Zm3.83-2,.11-40.09,36.89,21.3-.12,40.08Z"/><polygon class="cls-49" points="1130.59 606.59 1167.47 627.88 1167.36 667.97 1130.47 646.68 1130.59 606.59"/><polygon class="cls-6" points="1128.95 607.54 1132.23 605.64 1132.12 645.72 1128.84 647.63 1128.95 607.54"/><polygon class="cls-47" points="1132.12 645.72 1169 667.01 1165.71 668.92 1128.84 647.63 1132.12 645.72"/><polygon class="cls-6" points="1169.68 626.88 1172.96 624.97 1172.82 673.39 1169.54 675.3 1169.68 626.88"/><polygon class="cls-47" points="1128.43 599.26 1172.96 624.97 1169.68 626.88 1125.14 601.17 1128.43 599.26"/><path class="cls-4" d="M1125,649.59l44.53,25.71.14-48.42-44.54-25.71Zm3.83-2,.11-40.09,36.88,21.29-.12,40.09Z"/><polygon class="cls-49" points="991.49 492.58 1028.37 513.88 1028.26 553.97 991.38 532.67 991.49 492.58"/><polygon class="cls-6" points="989.85 493.54 993.14 491.63 993.02 531.72 989.74 533.62 989.85 493.54"/><polygon class="cls-47" points="993.02 531.72 1029.9 553.01 1026.62 554.91 989.74 533.62 993.02 531.72"/><polygon class="cls-6" points="1030.58 512.87 1033.86 510.96 1033.72 559.39 1030.44 561.29 1030.58 512.87"/><polygon class="cls-47" points="989.32 485.25 1033.86 510.96 1030.58 512.87 986.05 487.16 989.32 485.25"/><path class="cls-4" d="M985.9,535.59l44.54,25.71.14-48.43-44.53-25.71Zm3.84-2,.11-40.08,36.88,21.29-.11,40.08Z"/><polygon class="cls-49" points="1232.82 629.26 1269.7 650.56 1269.58 690.65 1232.71 669.36 1232.82 629.26"/><polygon class="cls-6" points="1231.19 630.22 1234.46 628.31 1234.36 668.39 1231.07 670.3 1231.19 630.22"/><polygon class="cls-47" points="1234.36 668.39 1271.23 689.69 1267.95 691.59 1231.07 670.3 1234.36 668.39"/><polygon class="cls-6" points="1271.91 649.55 1275.19 647.65 1275.05 696.07 1271.77 697.98 1271.91 649.55"/><polygon class="cls-47" points="1230.66 621.94 1275.19 647.65 1271.91 649.55 1227.37 623.84 1230.66 621.94"/><path class="cls-4" d="M1227.24,672.27,1271.77,698l.14-48.43-44.54-25.71Zm3.83-2,.12-40.08,36.87,21.29-.11,40.08Z"/><polygon class="cls-49" points="1287.6 659.95 1324.47 681.24 1324.36 721.33 1287.48 700.04 1287.6 659.95"/><polygon class="cls-6" points="1285.96 660.91 1289.24 659 1289.13 699.08 1285.84 700.99 1285.96 660.91"/><polygon class="cls-47" points="1289.13 699.08 1326.01 720.38 1322.72 722.28 1285.84 700.99 1289.13 699.08"/><polygon class="cls-6" points="1326.68 680.25 1329.97 678.33 1329.83 726.76 1326.55 728.66 1326.68 680.25"/><polygon class="cls-47" points="1285.43 652.62 1329.97 678.33 1326.68 680.25 1282.15 654.53 1285.43 652.62"/><path class="cls-4" d="M1282,703l44.54,25.71.13-48.41-44.53-25.72Zm3.83-2,.12-40.08,36.88,21.29-.12,40.08Z"/><g class="cls-2"><polygon class="cls-4" points="1130.27 442.39 1360.27 306.71 1160.34 314.04 930.35 449.72 1130.27 442.39"/><polygon class="cls-6" points="1329.51 680.17 1559.51 544.5 1360.27 306.71 1130.27 442.39 1329.51 680.17"/><polygon class="cls-4" points="1130.27 442.39 930.35 449.72 941.9 463.53 1130.22 456.61 1317.89 680.61 1329.51 680.17 1130.27 442.39"/></g><path class="cls-8" d="M861.91,669.79l-.08,29.31c0-20.29-13.3-40.6-40.05-56-53.17-30.7-139.37-30.7-192.2,0-26.23,15.24-39.36,35.24-39.41,55.26l.08-29.3c.06-20,13.19-40,39.42-55.26,52.82-30.7,139-30.7,192.2,0,26.74,15.44,40.1,35.75,40,56Z"/><path class="cls-9" d="M629.67,631.32c52.82-30.7,139-30.7,192.19,0,24.54,14.16,37.78,32.43,39.76,51,2.3-21.82-10.94-44.11-39.76-60.74-53.16-30.7-139.37-30.7-192.19,0-28.43,16.52-41.45,38.62-39.13,60.29C592.48,663.46,605.49,645.37,629.67,631.32Z"/><path class="cls-50" d="M821.87,631.32c-53.17-30.7-139.38-30.7-192.2,0s-52.53,80.62.64,111.32,139.36,30.68,192.16,0S875,662,821.87,631.32Z"/><path class="cls-8" d="M867.89,669.81l-.09,29.3c-.06,20.92-13.77,41.8-41.16,57.72-55.13,32-145.14,32-200.63,0-27.93-16.13-41.88-37.35-41.82-58.53l.08-29.3c-.06,21.18,13.89,42.4,41.82,58.53,55.49,32,145.51,32,200.63,0,27.39-15.92,41.11-36.8,41.17-57.71Z"/><path class="cls-7" d="M826.08,611.3c55.49,32,55.78,84.18.64,116.22s-145.14,32-200.63,0-55.79-84.19-.67-116.22S770.58,579.26,826.08,611.3ZM630.31,725.07c53.15,30.69,139.36,30.69,192.16,0s52.55-80.63-.6-111.31-139.38-30.7-192.2,0-52.53,80.62.64,111.31Z"/><path class="cls-7" d="M834.87,728.58c-2.06-1.24-4.94-1.08-8.13.75-6.29,3.64-11.39,12.48-11.39,19.74,0,3.59,1.24,6.13,3.26,7.34l36.88,21.29,16.26-27.83Z"/><g id="Axonometric_Cylinder" data-name="Axonometric Cylinder"><path class="cls-16" d="M880.7,742c-3.52-2.11-8.42-1.85-13.84,1.28-10.72,6.19-19.41,21.23-19.41,33.61,0,6.11,2.13,10.43,5.56,12.49l138.65,80L1019.35,822Z"/><path id="Cylinder_face" data-name="Cylinder face" class="cls-16" d="M986.1,856.91c0,12.37,8.69,17.39,19.41,11.2s19.4-21.23,19.4-33.61c0-8.13-3.75-13.08-9.37-13.77-2.93-.36-6.36.45-10,2.57C994.79,829.49,986.1,844.53,986.1,856.91Z"/></g><path class="cls-4" d="M1253.85,135.94l-.43,1.1-1.36-.79a6.72,6.72,0,0,0-3.21-1.08,2.57,2.57,0,0,0-1.77.67,11.11,11.11,0,0,0-1.79,3.5L1235,165.72a13.59,13.59,0,0,0-1.16,4,4.16,4.16,0,0,0,.86,2.14,7.83,7.83,0,0,0,2.59,2.19l1.36.78-.43,1.1-21.85-12.59.42-1.09,1.37.78a6.86,6.86,0,0,0,3.2,1.09,2.63,2.63,0,0,0,1.79-.7,11.3,11.3,0,0,0,1.79-3.53l11.62-29.66-30.34,27.26-.75-.42-2.09-45.63-11,28.19a25.37,25.37,0,0,0-1.27,3.72,5.66,5.66,0,0,0,.8,3.41,10.19,10.19,0,0,0,3.85,3.35l-.43,1.09L1180.94,143l.42-1.1.43.25.18.11a7.83,7.83,0,0,0,2.58,1,4.07,4.07,0,0,0,2.3-.17,4.87,4.87,0,0,0,1.8-1.61,30.25,30.25,0,0,0,1.25-3l9.91-25.32a12.91,12.91,0,0,0,1.15-4,4.31,4.31,0,0,0-.87-2.13,8,8,0,0,0-2.58-2.19l-1.33-.76.42-1.1,17.1,9.85,1.43,33.16,21.68-19.85Z"/><path class="cls-4" d="M1332.56,227.75a7.27,7.27,0,0,0,2.54,2.69l-.43,1.1-13.18-7.6-6.34-26-2.75-1.59L1308,207.58a12.93,12.93,0,0,0-1.19,4.32,4.19,4.19,0,0,0,.94,2.19,13.79,13.79,0,0,0,3.73,2.76l-.42,1.09-21.42-12.33.43-1.09a12,12,0,0,0,4.13,1.75,2.84,2.84,0,0,0,2-.51c.49-.39,1.16-1.67,2-3.83l10.17-26a12.8,12.8,0,0,0,1.18-4.33,4.21,4.21,0,0,0-.94-2.19,13.6,13.6,0,0,0-3.72-2.75l.43-1.09,19.43,11.19q7.61,4.38,10.72,7.4a15.93,15.93,0,0,1,4.29,7,11.45,11.45,0,0,1-.26,7.61,8.22,8.22,0,0,1-6.2,5.4,14.19,14.19,0,0,1-7-.68l4.76,19.34A27.64,27.64,0,0,0,1332.56,227.75Zm-6.45-30.32a8.84,8.84,0,0,0,3.22-4.42q1.79-4.57.41-8t-6.35-6.34l-3.31-1.9-6.86,17.53,1.76,1a24.69,24.69,0,0,0,6.71,2.94,5.86,5.86,0,0,0,4.42-.79"/><path class="cls-4" d="M1293.68,165a24,24,0,0,1,.44,18.45,18.65,18.65,0,0,1-9.91,10.71q-9.18,4.13-20.44-2.36t-14.6-17.39a24.51,24.51,0,0,1,.5-16.53q3.48-8.91,12.16-11.21,8.19-2.17,16.78,2.79c.34.19.67.39,1,.6l1.1.61A29.21,29.21,0,0,1,1293.68,165ZM1277,187.54q3.13-3.28,5.75-9.95,3.11-7.93,3.11-12.76a15.4,15.4,0,0,0-1.76-7.84,13.2,13.2,0,0,0-4.87-4.8q-5.74-3.3-10.93.58-4.24,3.21-7.62,11.83-4,10.23-2.16,17.31a12.08,12.08,0,0,0,6,7.65,10,10,0,0,0,5.89,1.58,10.61,10.61,0,0,0,6.59-3.6"/><path class="cls-4" d="M1387.42,212.87l-4.24,10.83-1.1-.63a20.84,20.84,0,0,0-.08-6.65,11.82,11.82,0,0,0-2.28-4.51,14.51,14.51,0,0,0-3.9-2.9l-3.11-1.8-12.09,30.88a12.85,12.85,0,0,0-1.15,4,4.18,4.18,0,0,0,.86,2.14,7.82,7.82,0,0,0,2.6,2.2l1.39.81-.42,1.09L1342,235.75l.43-1.1,1.39.81a6.86,6.86,0,0,0,3.17,1.07,2.61,2.61,0,0,0,1.82-.69,11.46,11.46,0,0,0,1.8-3.53l12.09-30.87-3-1.74q-4.23-2.44-6.81-1.83a9.8,9.8,0,0,0-6.07,4.86l-1.17-.67,4.24-10.83Z"/><path class="cls-4" d="M1416,228.16a39.33,39.33,0,0,1,5.42,3.7,39.86,39.86,0,0,1,3.87,3.87,25.44,25.44,0,0,0,3.17,3.18,2.69,2.69,0,0,0,1.84.33,4.76,4.76,0,0,0,2.25-1.51l1.15.65-5.53,14.12-1.14-.66a23.88,23.88,0,0,0-2.76-12.37,20.67,20.67,0,0,0-7.87-8.22c-3.13-1.8-6.05-2.46-8.79-2a11.8,11.8,0,0,0-7.17,4.49,31.94,31.94,0,0,0-4.92,8.53,34.84,34.84,0,0,0-2.53,10.91,15.23,15.23,0,0,0,2.08,9,18.48,18.48,0,0,0,6.72,6.36,19.7,19.7,0,0,0,3.22,1.48,24.77,24.77,0,0,0,3.61,1l3.26-8.32a9.17,9.17,0,0,0,.85-3.25,4.31,4.31,0,0,0-.91-2.07,7.45,7.45,0,0,0-2.36-2l-1.07-.62.42-1.09,20.34,11.71-.43,1.09a10.83,10.83,0,0,0-3.46-1.26,2.75,2.75,0,0,0-2,.71,7.87,7.87,0,0,0-1.35,2.59l-3.26,8.33a46.1,46.1,0,0,1-9.36-2.23,54.46,54.46,0,0,1-9.34-4.31,36.28,36.28,0,0,1-9.28-7.24,35.5,35.5,0,0,1-5.35-8.08,26.26,26.26,0,0,1-2.48-8.39,21.77,21.77,0,0,1,1.41-10.36,17.85,17.85,0,0,1,12.61-11.44Q1405.92,222.36,1416,228.16Z"/><path class="cls-4" d="M1570,318l-4.63,11.84-1.17-.67a17.31,17.31,0,0,0-.08-7.69,13.17,13.17,0,0,0-3.5-5.4,33,33,0,0,0-6.27-4.27l-4.32-2.49-6.38,16.3.83.48c2.66,1.53,4.9,1.83,6.71.93s3.5-2.82,5-5.74l1.17.67-8.2,21-1.18-.67a17.57,17.57,0,0,0,.64-6.51,9,9,0,0,0-1.61-4.53,14.65,14.65,0,0,0-4.27-3.38l-4.42,11.27a16.7,16.7,0,0,0-1.29,4.22,3.38,3.38,0,0,0,.62,1.84,7.13,7.13,0,0,0,2.41,2l2.5,1.44q5.87,3.38,10.41,2.82t8.18-5l1.14.66-6.86,11.63-36.17-20.83.42-1.09,1.39.8a7,7,0,0,0,3.18,1.08,2.47,2.47,0,0,0,1.79-.71,11.3,11.3,0,0,0,1.79-3.53l10.31-26.33a20.52,20.52,0,0,0,1.15-3.42,3.82,3.82,0,0,0-.51-2.25,7.57,7.57,0,0,0-2.89-2.68l-1.39-.8.42-1.09Z"/><path class="cls-4" d="M1510.77,282.75a39.47,39.47,0,0,1,5.43,3.7,42.79,42.79,0,0,1,3.87,3.88,26.08,26.08,0,0,0,3.16,3.17,2.63,2.63,0,0,0,1.84.33,4.64,4.64,0,0,0,2.25-1.51l1.15.66-5.53,14.11-1.14-.66a24,24,0,0,0-2.75-12.37,20.8,20.8,0,0,0-7.87-8.22q-4.7-2.68-8.79-2a11.78,11.78,0,0,0-7.17,4.49,31.65,31.65,0,0,0-4.93,8.52,34.9,34.9,0,0,0-2.53,10.91,15.23,15.23,0,0,0,2.08,9,19.65,19.65,0,0,0,10,7.84,24.63,24.63,0,0,0,3.6,1l3.26-8.32a9.25,9.25,0,0,0,.86-3.25,4.34,4.34,0,0,0-.91-2.06,7.32,7.32,0,0,0-2.36-2l-1.08-.63.42-1.09L1523.92,320l-.43,1.09a10.42,10.42,0,0,0-3.46-1.25,2.71,2.71,0,0,0-2,.71,7.78,7.78,0,0,0-1.35,2.58l-3.26,8.33a46.1,46.1,0,0,1-9.36-2.23,53.56,53.56,0,0,1-9.33-4.3,36.5,36.5,0,0,1-9.28-7.24,35.39,35.39,0,0,1-5.35-8.08,26,26,0,0,1-2.48-8.4A21.65,21.65,0,0,1,1479,290.8a17.86,17.86,0,0,1,12.6-11.44Q1500.72,277,1510.77,282.75Z"/><path class="cls-4" d="M1466,304.54a6.83,6.83,0,0,0,2.54,2.76l-.42,1.1-20.25-11.66.43-1.09.83.47a7.54,7.54,0,0,0,3.69,1.33,1.37,1.37,0,0,0,1.2-1,4.06,4.06,0,0,0,.25-1.2c0-.21,0-1.12-.06-2.76l-.27-6.25-14.78-8.52-3.29,2.88a7.64,7.64,0,0,0-2.12,2.72,3.36,3.36,0,0,0,.45,3.3,16.93,16.93,0,0,0,3.83,3.07l-.43,1.09-13.92-8,.43-1.09a6.45,6.45,0,0,0,4.41.34c1.33-.41,3.32-1.74,5.93-4l27.47-23.31.59.34,2.24,41.51Q1465.09,302.53,1466,304.54Zm-24.9-28.35,12.65,7.29-.84-17.37-11.81,10.08"/></g></g></svg>